<svg width="168" height="19" viewBox="0 0 168 19" fill="none" xmlns="http://www.w3.org/2000/svg">
<path d="M4.96291 18.288C3.92291 18.288 3.05091 18.064 2.34691 17.616C1.64291 17.152 1.12291 16.56 0.786907 15.84C0.450907 15.12 0.282907 14.36 0.282907 13.56C0.282907 12.536 0.538907 11.648 1.05091 10.896C1.56291 10.128 2.21891 9.544 3.01891 9.144C3.83491 8.728 4.66691 8.52 5.51491 8.52C6.21891 8.52 6.85891 8.664 7.43491 8.952C8.02691 9.224 8.32291 9.568 8.32291 9.984C8.32291 10.192 8.24291 10.376 8.08291 10.536C7.93891 10.68 7.73891 10.752 7.48291 10.752C7.05091 10.752 6.69891 10.488 6.42691 9.96C6.21891 9.64 5.99491 9.4 5.75491 9.24C5.51491 9.08 5.17091 9 4.72291 9C3.82691 9 3.12291 9.352 2.61091 10.056C2.11491 10.744 1.86691 11.672 1.86691 12.84C1.86691 14.184 2.20291 15.288 2.87491 16.152C3.54691 17.016 4.55491 17.448 5.89891 17.448C6.87491 17.448 7.69091 17.184 8.34691 16.656H8.37091C8.41891 16.656 8.45891 16.68 8.49091 16.728C8.53891 16.776 8.54691 16.816 8.51491 16.848C7.95491 17.344 7.38691 17.712 6.81091 17.952C6.25091 18.176 5.63491 18.288 4.96291 18.288ZM14.0861 18C14.0381 18 14.0141 17.952 14.0141 17.856C14.0141 17.76 14.0381 17.712 14.0861 17.712C14.5181 17.712 14.8381 17.672 15.0461 17.592C15.2541 17.496 15.3981 17.336 15.4781 17.112C15.5581 16.872 15.5981 16.52 15.5981 16.056V3.648C15.5981 3.072 15.5421 2.656 15.4301 2.4C15.3181 2.144 15.1181 2.016 14.8301 2.016C14.5901 2.016 14.2221 2.128 13.7261 2.352H13.6781C13.6301 2.352 13.5901 2.312 13.5581 2.232C13.5421 2.152 13.5581 2.104 13.6061 2.088L16.6781 0.623999C16.7101 0.607999 16.7501 0.599999 16.7981 0.599999C16.8301 0.599999 16.8701 0.623999 16.9181 0.671999C16.9821 0.703999 17.0141 0.743999 17.0141 0.792V16.056C17.0141 16.52 17.0461 16.864 17.1101 17.088C17.1901 17.312 17.3341 17.472 17.5421 17.568C17.7501 17.664 18.0701 17.712 18.5021 17.712C18.5501 17.712 18.5741 17.76 18.5741 17.856C18.5741 17.952 18.5501 18 18.5021 18C18.1501 18 17.8621 17.992 17.6381 17.976L16.2941 17.952L14.9981 17.976C14.7741 17.992 14.4701 18 14.0861 18ZM26.4416 5.712C26.1056 5.712 25.8416 5.624 25.6496 5.448C25.4736 5.272 25.3856 5.024 25.3856 4.704C25.3856 4.384 25.4736 4.136 25.6496 3.96C25.8416 3.784 26.1056 3.696 26.4416 3.696C26.7616 3.696 27.0096 3.784 27.1856 3.96C27.3616 4.136 27.4496 4.384 27.4496 4.704C27.4496 5.024 27.3616 5.272 27.1856 5.448C27.0096 5.624 26.7616 5.712 26.4416 5.712ZM24.4256 18C24.3936 18 24.3776 17.952 24.3776 17.856C24.3776 17.76 24.3936 17.712 24.4256 17.712C24.8576 17.712 25.1776 17.672 25.3856 17.592C25.6096 17.496 25.7616 17.336 25.8416 17.112C25.9216 16.872 25.9616 16.52 25.9616 16.056V11.568C25.9616 10.992 25.8976 10.576 25.7696 10.32C25.6576 10.064 25.4576 9.936 25.1696 9.936C24.8816 9.936 24.5216 10.048 24.0896 10.272H24.0656C24.0016 10.272 23.9536 10.232 23.9216 10.152C23.8896 10.072 23.8976 10.016 23.9456 9.984L27.0656 8.544L27.1616 8.52C27.1936 8.52 27.2336 8.544 27.2816 8.592C27.3296 8.624 27.3536 8.664 27.3536 8.712C27.3536 8.824 27.3456 9.144 27.3296 9.672C27.3136 10.2 27.3056 10.824 27.3056 11.544V16.056C27.3056 16.536 27.3456 16.888 27.4256 17.112C27.5056 17.336 27.6496 17.496 27.8576 17.592C28.0656 17.672 28.3856 17.712 28.8176 17.712C28.8656 17.712 28.8896 17.76 28.8896 17.856C28.8896 17.952 28.8656 18 28.8176 18C28.4496 18 28.1536 17.992 27.9296 17.976L26.6336 17.952L25.3376 17.976C25.1136 17.992 24.8096 18 24.4256 18ZM39.1001 18.288C38.0601 18.288 37.1881 18.064 36.4841 17.616C35.7801 17.152 35.2601 16.56 34.9241 15.84C34.5881 15.12 34.4201 14.36 34.4201 13.56C34.4201 12.536 34.6761 11.648 35.1881 10.896C35.7001 10.128 36.3561 9.544 37.1561 9.144C37.9721 8.728 38.8041 8.52 39.6521 8.52C40.3561 8.52 40.9961 8.664 41.5721 8.952C42.1641 9.224 42.4601 9.568 42.4601 9.984C42.4601 10.192 42.3801 10.376 42.2201 10.536C42.0761 10.68 41.8761 10.752 41.6201 10.752C41.1881 10.752 40.8361 10.488 40.5641 9.96C40.3561 9.64 40.1321 9.4 39.8921 9.24C39.6521 9.08 39.3081 9 38.8601 9C37.9641 9 37.2601 9.352 36.7481 10.056C36.2521 10.744 36.0041 11.672 36.0041 12.84C36.0041 14.184 36.3401 15.288 37.0121 16.152C37.6841 17.016 38.6921 17.448 40.0361 17.448C41.0121 17.448 41.8281 17.184 42.4841 16.656H42.5081C42.5561 16.656 42.5961 16.68 42.6281 16.728C42.6761 16.776 42.6841 16.816 42.6521 16.848C42.0921 17.344 41.5241 17.712 40.9481 17.952C40.3881 18.176 39.7721 18.288 39.1001 18.288ZM58.8553 17.712C58.9033 17.712 58.9273 17.76 58.9273 17.856C58.9273 17.952 58.9033 18 58.8553 18C58.4873 18 58.1913 17.992 57.9673 17.976L56.6713 17.952L54.9433 17.976C54.6873 17.992 54.3433 18 53.9113 18C53.8793 18 53.8633 17.952 53.8633 17.856C53.8633 17.76 53.8793 17.712 53.9113 17.712C54.7113 17.712 55.1113 17.56 55.1113 17.256C55.1113 17.112 55.0393 16.936 54.8953 16.728L51.9433 12.72L50.7433 13.656V16.056C50.7433 16.52 50.7833 16.872 50.8633 17.112C50.9433 17.336 51.0873 17.496 51.2953 17.592C51.5033 17.672 51.8233 17.712 52.2553 17.712C52.3033 17.712 52.3273 17.76 52.3273 17.856C52.3273 17.952 52.3033 18 52.2553 18C51.8873 18 51.5913 17.992 51.3673 17.976L50.0713 17.952L48.7753 17.976C48.5513 17.992 48.2553 18 47.8873 18C47.8393 18 47.8153 17.952 47.8153 17.856C47.8153 17.76 47.8393 17.712 47.8873 17.712C48.3193 17.712 48.6393 17.672 48.8473 17.592C49.0553 17.496 49.1993 17.336 49.2793 17.112C49.3593 16.872 49.3993 16.52 49.3993 16.056V3.648C49.3993 3.072 49.3433 2.656 49.2313 2.4C49.1193 2.144 48.9193 2.016 48.6313 2.016C48.3913 2.016 48.0233 2.128 47.5273 2.352H47.4793C47.4313 2.352 47.3913 2.312 47.3593 2.232C47.3273 2.152 47.3433 2.104 47.4073 2.088L50.4073 0.623999L50.5273 0.599999C50.5753 0.599999 50.6233 0.623999 50.6713 0.671999C50.7193 0.703999 50.7433 0.743999 50.7433 0.792V13.272L53.9593 10.68C54.4713 10.28 54.7273 9.928 54.7273 9.624C54.7273 9.224 54.2713 9.024 53.3593 9.024C53.3113 9.024 53.2873 8.976 53.2873 8.88C53.2873 8.784 53.3113 8.736 53.3593 8.736C53.7913 8.736 54.1193 8.744 54.3433 8.76L56.0953 8.784L57.7033 8.76C57.9113 8.744 58.1993 8.736 58.5673 8.736C58.6153 8.736 58.6393 8.784 58.6393 8.88C58.6393 8.976 58.6153 9.024 58.5673 9.024C57.9753 9.024 57.3193 9.168 56.5993 9.456C55.8793 9.744 55.1593 10.176 54.4393 10.752L53.0473 11.856L56.0953 16.056C56.8953 17.16 57.8153 17.712 58.8553 17.712ZM79.8213 16.752C79.8853 16.752 79.9333 16.792 79.9653 16.872C79.9973 16.936 79.9893 16.984 79.9413 17.016C79.3493 17.48 78.8133 17.808 78.3333 18C77.8693 18.192 77.3813 18.288 76.8693 18.288C76.1973 18.288 75.6453 18.136 75.2133 17.832C74.7813 17.528 74.5653 17.024 74.5653 16.32V10.68C74.5653 10.264 74.5333 9.968 74.4693 9.792C74.4213 9.616 74.3173 9.504 74.1573 9.456C73.9973 9.392 73.7253 9.36 73.3413 9.36C73.2773 9.36 73.2453 9.312 73.2453 9.216C73.2453 9.104 73.2773 9.048 73.3413 9.048C73.9813 9.032 74.5013 8.864 74.9013 8.544C75.3013 8.208 75.5333 7.768 75.5973 7.224C75.5973 7.176 75.6613 7.152 75.7893 7.152C75.9013 7.152 75.9573 7.176 75.9573 7.224V9C76.7573 8.984 77.8693 8.904 79.2933 8.76C79.3253 8.76 79.3573 8.824 79.3893 8.952C79.4373 9.064 79.4613 9.192 79.4613 9.336C79.4613 9.464 79.4293 9.6 79.3653 9.744C79.3173 9.872 79.2613 9.928 79.1973 9.912C78.3173 9.688 77.2373 9.56 75.9573 9.528V15.504C75.9573 16.16 76.1173 16.648 76.4373 16.968C76.7733 17.288 77.2453 17.448 77.8533 17.448C78.5573 17.448 79.1973 17.224 79.7733 16.776L79.8213 16.752ZM89.8507 18.312C88.9227 18.312 88.0987 18.088 87.3787 17.64C86.6747 17.176 86.1307 16.56 85.7467 15.792C85.3627 15.008 85.1707 14.16 85.1707 13.248C85.1707 12.208 85.4187 11.328 85.9147 10.608C86.4267 9.872 87.0747 9.328 87.8587 8.976C88.6587 8.608 89.4667 8.424 90.2827 8.424C91.2267 8.424 92.0507 8.656 92.7547 9.12C93.4587 9.584 93.9947 10.2 94.3627 10.968C94.7467 11.72 94.9387 12.52 94.9387 13.368C94.9387 14.36 94.7067 15.232 94.2427 15.984C93.7787 16.72 93.1547 17.296 92.3707 17.712C91.6027 18.112 90.7627 18.312 89.8507 18.312ZM90.5467 17.856C91.4267 17.856 92.1067 17.544 92.5867 16.92C93.0667 16.296 93.3067 15.336 93.3067 14.04C93.3067 13.048 93.1387 12.16 92.8027 11.376C92.4827 10.592 92.0347 9.984 91.4587 9.552C90.8827 9.104 90.2267 8.88 89.4907 8.88C88.6267 8.88 87.9547 9.192 87.4747 9.816C87.0107 10.44 86.7787 11.336 86.7787 12.504C86.7787 13.48 86.9387 14.376 87.2587 15.192C87.5787 16.008 88.0267 16.656 88.6027 17.136C89.1787 17.616 89.8267 17.856 90.5467 17.856ZM111.52 10.2C111.52 10.76 111.704 11.208 112.072 11.544C112.44 11.864 112.976 12.208 113.68 12.576C114.24 12.864 114.672 13.112 114.976 13.32C115.296 13.528 115.568 13.8 115.792 14.136C116.016 14.472 116.128 14.88 116.128 15.36C116.128 16.176 115.824 16.864 115.216 17.424C114.608 17.984 113.784 18.264 112.744 18.264C111.896 18.264 111.128 18.024 110.44 17.544C110.344 17.48 110.296 17.384 110.296 17.256L110.248 15.384C110.248 15.336 110.288 15.312 110.368 15.312C110.464 15.296 110.52 15.312 110.536 15.36C110.84 16.16 111.232 16.768 111.712 17.184C112.208 17.6 112.776 17.808 113.416 17.808C113.944 17.808 114.344 17.68 114.616 17.424C114.888 17.168 115.008 16.792 114.976 16.296C114.96 15.688 114.768 15.224 114.4 14.904C114.048 14.568 113.512 14.224 112.792 13.872C112.264 13.616 111.84 13.384 111.52 13.176C111.216 12.968 110.952 12.696 110.728 12.36C110.52 12.024 110.416 11.608 110.416 11.112C110.416 10.248 110.736 9.592 111.376 9.144C112.032 8.68 112.8 8.448 113.68 8.448C114.32 8.448 114.904 8.568 115.432 8.808C115.528 8.84 115.584 8.88 115.6 8.928C115.632 8.96 115.648 9.008 115.648 9.072C115.648 9.392 115.64 9.64 115.624 9.816L115.6 10.824C115.6 10.856 115.552 10.872 115.456 10.872C115.36 10.872 115.312 10.856 115.312 10.824C115.312 10.488 115.184 10.176 114.928 9.888C114.672 9.584 114.352 9.344 113.968 9.168C113.584 8.992 113.2 8.904 112.816 8.904C112.416 8.904 112.096 9.016 111.856 9.24C111.632 9.448 111.52 9.768 111.52 10.2ZM128.509 16.752C128.573 16.752 128.621 16.792 128.653 16.872C128.685 16.936 128.677 16.984 128.629 17.016C128.037 17.48 127.501 17.808 127.021 18C126.557 18.192 126.069 18.288 125.557 18.288C124.885 18.288 124.333 18.136 123.901 17.832C123.469 17.528 123.253 17.024 123.253 16.32V10.68C123.253 10.264 123.221 9.968 123.157 9.792C123.109 9.616 123.005 9.504 122.845 9.456C122.685 9.392 122.413 9.36 122.029 9.36C121.965 9.36 121.933 9.312 121.933 9.216C121.933 9.104 121.965 9.048 122.029 9.048C122.669 9.032 123.189 8.864 123.589 8.544C123.989 8.208 124.221 7.768 124.285 7.224C124.285 7.176 124.349 7.152 124.477 7.152C124.589 7.152 124.645 7.176 124.645 7.224V9C125.445 8.984 126.557 8.904 127.981 8.76C128.013 8.76 128.045 8.824 128.077 8.952C128.125 9.064 128.149 9.192 128.149 9.336C128.149 9.464 128.117 9.6 128.053 9.744C128.005 9.872 127.949 9.928 127.885 9.912C127.005 9.688 125.925 9.56 124.645 9.528V15.504C124.645 16.16 124.805 16.648 125.125 16.968C125.461 17.288 125.933 17.448 126.541 17.448C127.245 17.448 127.885 17.224 128.461 16.776L128.509 16.752ZM142.955 16.704C143.019 16.704 143.059 16.744 143.075 16.824C143.091 16.888 143.067 16.936 143.003 16.968L140.531 18.144C140.467 18.176 140.403 18.192 140.339 18.192C140.131 18.192 139.947 18.056 139.787 17.784C139.627 17.496 139.523 17.112 139.475 16.632L138.227 17.448C137.827 17.704 137.475 17.888 137.171 18C136.867 18.112 136.547 18.168 136.211 18.168C135.619 18.168 135.155 18.016 134.819 17.712C134.499 17.392 134.339 16.992 134.339 16.512C134.339 16.032 134.531 15.616 134.915 15.264C135.299 14.912 135.931 14.576 136.811 14.256L139.451 13.272V11.64C139.451 9.848 138.947 8.952 137.939 8.952C137.395 8.952 136.979 9.136 136.691 9.504C136.419 9.856 136.235 10.264 136.139 10.728C136.091 11.016 136.003 11.256 135.875 11.448C135.747 11.624 135.531 11.712 135.227 11.712C134.971 11.712 134.771 11.64 134.627 11.496C134.499 11.352 134.435 11.184 134.435 10.992C134.435 10.608 134.683 10.224 135.179 9.84C135.675 9.456 136.267 9.136 136.955 8.88C137.643 8.624 138.259 8.496 138.803 8.496C139.459 8.496 139.955 8.704 140.291 9.12C140.627 9.536 140.795 10.136 140.795 10.92V15.408C140.795 15.968 140.867 16.376 141.011 16.632C141.155 16.888 141.395 17.016 141.731 17.016C142.035 17.016 142.427 16.912 142.907 16.704H142.955ZM139.451 16.296V16.176V13.608L137.219 14.472C136.771 14.648 136.443 14.856 136.235 15.096C136.043 15.32 135.947 15.592 135.947 15.912C135.947 16.296 136.067 16.624 136.307 16.896C136.563 17.152 136.891 17.28 137.291 17.28C137.611 17.28 137.995 17.152 138.443 16.896L139.451 16.296ZM153.49 8.52C153.842 8.52 154.178 8.616 154.498 8.808C154.818 9 154.978 9.232 154.978 9.504C154.978 9.712 154.906 9.888 154.762 10.032C154.634 10.176 154.442 10.248 154.186 10.248C154.042 10.248 153.914 10.224 153.802 10.176C153.706 10.112 153.586 10.024 153.442 9.912C153.298 9.784 153.162 9.688 153.034 9.624C152.906 9.56 152.754 9.528 152.578 9.528C152.37 9.528 152.146 9.616 151.906 9.792C151.682 9.968 151.322 10.344 150.826 10.92V16.056C150.826 16.536 150.882 16.888 150.994 17.112C151.122 17.336 151.346 17.496 151.666 17.592C151.986 17.672 152.482 17.712 153.154 17.712C153.218 17.712 153.25 17.76 153.25 17.856C153.25 17.952 153.218 18 153.154 18C152.642 18 152.234 17.992 151.93 17.976L150.154 17.952L148.834 17.976C148.626 17.992 148.338 18 147.97 18C147.922 18 147.898 17.952 147.898 17.856C147.898 17.76 147.922 17.712 147.97 17.712C148.402 17.712 148.722 17.672 148.93 17.592C149.138 17.496 149.274 17.336 149.338 17.112C149.418 16.888 149.458 16.536 149.458 16.056V11.304C149.458 10.76 149.394 10.368 149.266 10.128C149.138 9.888 148.922 9.768 148.618 9.768C148.362 9.768 147.93 9.888 147.322 10.128H147.274C147.21 10.128 147.162 10.096 147.13 10.032C147.114 9.952 147.138 9.896 147.202 9.864L149.986 8.544L150.13 8.52C150.274 8.52 150.426 8.704 150.586 9.072C150.746 9.44 150.826 9.912 150.826 10.488V10.512C151.482 9.744 152.002 9.224 152.386 8.952C152.77 8.664 153.138 8.52 153.49 8.52ZM166.936 16.752C167 16.752 167.048 16.792 167.08 16.872C167.112 16.936 167.104 16.984 167.056 17.016C166.464 17.48 165.928 17.808 165.448 18C164.984 18.192 164.496 18.288 163.984 18.288C163.312 18.288 162.76 18.136 162.328 17.832C161.896 17.528 161.68 17.024 161.68 16.32V10.68C161.68 10.264 161.648 9.968 161.584 9.792C161.536 9.616 161.432 9.504 161.272 9.456C161.112 9.392 160.84 9.36 160.456 9.36C160.392 9.36 160.36 9.312 160.36 9.216C160.36 9.104 160.392 9.048 160.456 9.048C161.096 9.032 161.616 8.864 162.016 8.544C162.416 8.208 162.648 7.768 162.712 7.224C162.712 7.176 162.776 7.152 162.904 7.152C163.016 7.152 163.072 7.176 163.072 7.224V9C163.872 8.984 164.984 8.904 166.408 8.76C166.44 8.76 166.472 8.824 166.504 8.952C166.552 9.064 166.576 9.192 166.576 9.336C166.576 9.464 166.544 9.6 166.48 9.744C166.432 9.872 166.376 9.928 166.312 9.912C165.432 9.688 164.352 9.56 163.072 9.528V15.504C163.072 16.16 163.232 16.648 163.552 16.968C163.888 17.288 164.36 17.448 164.968 17.448C165.672 17.448 166.312 17.224 166.888 16.776L166.936 16.752Z" fill="#E5CDCD"/>
</svg>
