<svg width="245" height="36" viewBox="0 0 245 36" fill="none" xmlns="http://www.w3.org/2000/svg">
<path d="M5.198 35.528C3.95 35.528 2.878 35.24 1.982 34.664C1.118 34.088 0.749998 33.384 0.877999 32.552C0.909998 32.136 1.07 31.816 1.358 31.592C1.646 31.336 1.966 31.208 2.318 31.208C2.606 31.208 2.83 31.304 2.99 31.496C3.182 31.688 3.406 32.008 3.662 32.456C4.046 33.096 4.43 33.592 4.814 33.944C5.23 34.296 5.838 34.472 6.638 34.472C8.398 34.472 9.422 33.496 9.71 31.544C9.742 31.384 9.758 31.176 9.758 30.92C9.758 29.992 9.502 29.192 8.99 28.52C8.478 27.848 7.678 27.064 6.59 26.168C5.534 25.304 4.734 24.552 4.19 23.912C3.678 23.24 3.422 22.44 3.422 21.512C3.422 21.352 3.454 21.08 3.518 20.696C3.806 19.256 4.558 18.12 5.774 17.288C7.022 16.424 8.398 15.992 9.902 15.992C10.99 15.992 11.902 16.2 12.638 16.616C13.406 17.032 13.79 17.56 13.79 18.2C13.79 18.68 13.63 19.048 13.31 19.304C13.022 19.56 12.686 19.688 12.302 19.688C11.95 19.688 11.646 19.592 11.39 19.4C11.166 19.208 10.91 18.92 10.622 18.536C10.27 18.024 9.918 17.656 9.566 17.432C9.246 17.176 8.782 17.048 8.174 17.048C7.406 17.048 6.782 17.272 6.302 17.72C5.854 18.136 5.63 18.76 5.63 19.592C5.63 20.456 5.886 21.24 6.398 21.944C6.942 22.616 7.726 23.384 8.75 24.248C9.87 25.24 10.686 26.088 11.198 26.792C11.742 27.464 12.014 28.28 12.014 29.24C12.014 30.264 11.71 31.272 11.102 32.264C10.494 33.224 9.662 34.008 8.606 34.616C7.55 35.224 6.414 35.528 5.198 35.528ZM36.2904 16.52C36.5784 16.52 36.6904 16.664 36.6264 16.952C36.5304 17.304 36.2744 17.688 35.8584 18.104C35.4744 18.52 35.1224 18.712 34.8024 18.68C32.5944 18.328 30.2264 18.136 27.6984 18.104L25.5864 30.008C25.4904 30.52 25.4424 30.984 25.4424 31.4C25.4424 32.2 25.6344 32.792 26.0184 33.176C26.4024 33.56 26.9944 33.752 27.7944 33.752C28.5624 33.752 29.2504 33.608 29.8584 33.32C30.4984 33 31.2184 32.552 32.0184 31.976H32.0664C32.1624 31.976 32.2584 32.024 32.3544 32.12C32.4824 32.216 32.5144 32.296 32.4504 32.36C31.0744 33.512 29.8744 34.344 28.8504 34.856C27.8264 35.336 26.8504 35.576 25.9224 35.576C24.9944 35.576 24.2264 35.352 23.6184 34.904C23.0104 34.424 22.7064 33.656 22.7064 32.6C22.7064 32.12 22.7384 31.752 22.8024 31.496L24.8664 20.312C24.9944 19.416 25.0584 18.904 25.0584 18.776C25.0584 18.328 24.9304 18.04 24.6744 17.912C24.4184 17.752 23.9384 17.672 23.2344 17.672C23.1384 17.672 23.0904 17.592 23.0904 17.432C23.0904 17.368 23.1064 17.304 23.1384 17.24C23.2024 17.144 23.2504 17.096 23.2824 17.096C24.3704 17.096 25.3144 16.744 26.1144 16.04C26.9144 15.336 27.4584 14.456 27.7464 13.4C27.8104 13.304 27.9544 13.256 28.1784 13.256C28.4984 13.256 28.6264 13.304 28.5624 13.4L27.9384 17C29.5064 16.968 32.2904 16.808 36.2904 16.52ZM58.9483 31.304C58.9803 31.272 59.0283 31.256 59.0923 31.256C59.1883 31.256 59.2683 31.32 59.3323 31.448C59.3963 31.544 59.3963 31.624 59.3323 31.688C58.2443 32.936 57.2683 33.88 56.4043 34.52C55.5723 35.128 54.7563 35.432 53.9563 35.432C53.4123 35.432 52.9963 35.272 52.7083 34.952C52.4523 34.6 52.3243 34.04 52.3243 33.272C52.3243 32.632 52.4203 31.784 52.6123 30.728L53.4763 25.736C52.0043 28.712 50.3403 31.112 48.4843 32.936C46.6603 34.728 44.9002 35.624 43.2042 35.624C41.2202 35.624 40.2282 34.44 40.2282 32.072C40.2282 31.816 40.2602 31.336 40.3242 30.632C40.6442 28.36 41.4922 26.072 42.8682 23.768C44.2443 21.464 45.8603 19.576 47.7163 18.104C49.5723 16.6 51.3163 15.848 52.9483 15.848C53.5563 15.848 54.1483 15.96 54.7243 16.184C55.3003 16.408 55.7643 16.744 56.1163 17.192C56.6923 16.712 57.0763 16.136 57.2683 15.464C57.3003 15.368 57.4123 15.336 57.6043 15.368C57.7963 15.4 57.8763 15.448 57.8443 15.512L55.0603 30.728C54.9643 31.208 54.9163 31.64 54.9163 32.024C54.9163 33.016 55.2043 33.512 55.7803 33.512C56.4843 33.512 57.5403 32.776 58.9483 31.304ZM44.9323 33.272C46.0843 33.272 47.3003 32.68 48.5803 31.496C49.8923 30.312 51.0603 28.824 52.0842 27.032C53.1083 25.208 53.7963 23.432 54.1483 21.704C54.2443 21.288 54.2763 20.92 54.2443 20.6C54.2443 19.64 53.9883 18.888 53.4763 18.344C52.9963 17.8 52.2603 17.528 51.2683 17.528C50.1483 17.56 48.9963 18.072 47.8122 19.064C46.6602 20.024 45.6523 21.336 44.7883 23C43.9243 24.632 43.3483 26.456 43.0602 28.472C42.9642 29.176 42.9162 29.816 42.9162 30.392C42.9162 32.312 43.5883 33.272 44.9323 33.272ZM79.2808 16.04C79.8888 16.04 80.4808 16.264 81.0568 16.712C81.6328 17.16 81.9208 17.688 81.9208 18.296C81.9208 18.776 81.7608 19.176 81.4408 19.496C81.1528 19.816 80.7848 19.976 80.3368 19.976C79.9848 19.976 79.6968 19.896 79.4728 19.736C79.2808 19.576 79.0728 19.336 78.8488 19.016C78.7208 18.856 78.5768 18.712 78.4168 18.584C78.2568 18.424 78.0808 18.344 77.8888 18.344C77.1848 18.344 76.3368 19.272 75.3448 21.128C74.3848 22.984 73.4728 25.208 72.6088 27.8C71.7448 30.392 71.1208 32.68 70.7368 34.664C70.7048 34.888 70.5448 35.064 70.2568 35.192C70.0008 35.32 69.6488 35.384 69.2008 35.384C68.7848 35.384 68.4968 35.352 68.3368 35.288C68.2088 35.256 68.1448 35.192 68.1448 35.096L68.3848 33.992L68.8648 31.448L70.4488 22.568C70.6408 21.512 70.7368 20.68 70.7368 20.072C70.7368 18.632 70.3528 17.912 69.5848 17.912C68.8808 17.912 67.9048 18.504 66.6568 19.688L66.5608 19.736C66.4648 19.736 66.3848 19.688 66.3208 19.592C66.2568 19.464 66.2408 19.368 66.2728 19.304C67.2648 18.216 68.1768 17.4 69.0088 16.856C69.8408 16.312 70.6568 16.04 71.4568 16.04C72.0968 16.04 72.5608 16.248 72.8488 16.664C73.1688 17.08 73.3288 17.8 73.3288 18.824C73.3288 19.624 73.2008 20.84 72.9448 22.472L71.9368 27.944C73.0248 24.584 74.2088 21.768 75.4888 19.496C76.8008 17.192 78.0648 16.04 79.2808 16.04ZM100.921 16.616C101.145 16.616 101.257 16.728 101.257 16.952C101.257 17.208 101.081 17.544 100.729 17.96C100.377 18.376 100.041 18.584 99.7213 18.584C99.5613 18.584 98.9213 18.52 97.8013 18.392C96.7133 18.232 95.6413 18.136 94.5853 18.104L92.4733 30.008C92.3773 30.52 92.3293 30.984 92.3293 31.4C92.3293 32.2 92.5213 32.792 92.9053 33.176C93.2893 33.56 93.8813 33.752 94.6813 33.752C95.5133 33.752 96.2973 33.576 97.0333 33.224C97.7693 32.84 98.5213 32.312 99.2893 31.64H99.3373C99.4333 31.64 99.5293 31.688 99.6253 31.784C99.7533 31.88 99.7693 31.96 99.6733 32.024C98.2333 33.272 96.9693 34.184 95.8813 34.76C94.8253 35.304 93.8013 35.576 92.8093 35.576C91.8813 35.576 91.1133 35.336 90.5053 34.856C89.8973 34.376 89.5933 33.608 89.5933 32.552C89.5933 32.36 89.6253 32.008 89.6893 31.496L91.7533 20.312C91.8813 19.704 91.9453 19.192 91.9453 18.776C91.9453 18.328 91.8173 18.04 91.5613 17.912C91.3053 17.752 90.8253 17.672 90.1213 17.672C90.0253 17.672 89.9773 17.592 89.9773 17.432C89.9773 17.368 89.9933 17.304 90.0253 17.24C90.0893 17.144 90.1373 17.096 90.1693 17.096C91.2573 17.096 92.2013 16.744 93.0013 16.04C93.8013 15.336 94.3453 14.456 94.6333 13.4C94.6973 13.304 94.8413 13.256 95.0653 13.256C95.3853 13.256 95.5133 13.304 95.4493 13.4L94.8253 16.952C96.3933 16.888 97.8813 16.808 99.2893 16.712L100.921 16.616ZM127.815 35.528C126.567 35.528 125.495 35.24 124.599 34.664C123.735 34.088 123.367 33.384 123.495 32.552C123.527 32.136 123.687 31.816 123.975 31.592C124.263 31.336 124.583 31.208 124.935 31.208C125.223 31.208 125.447 31.304 125.607 31.496C125.799 31.688 126.023 32.008 126.279 32.456C126.663 33.096 127.047 33.592 127.431 33.944C127.847 34.296 128.455 34.472 129.255 34.472C131.015 34.472 132.039 33.496 132.327 31.544C132.359 31.384 132.375 31.176 132.375 30.92C132.375 29.992 132.119 29.192 131.607 28.52C131.095 27.848 130.295 27.064 129.207 26.168C128.151 25.304 127.351 24.552 126.807 23.912C126.295 23.24 126.039 22.44 126.039 21.512C126.039 21.352 126.071 21.08 126.135 20.696C126.423 19.256 127.175 18.12 128.391 17.288C129.639 16.424 131.015 15.992 132.519 15.992C133.607 15.992 134.519 16.2 135.255 16.616C136.023 17.032 136.407 17.56 136.407 18.2C136.407 18.68 136.247 19.048 135.927 19.304C135.639 19.56 135.303 19.688 134.919 19.688C134.567 19.688 134.263 19.592 134.007 19.4C133.783 19.208 133.527 18.92 133.239 18.536C132.887 18.024 132.535 17.656 132.183 17.432C131.863 17.176 131.399 17.048 130.791 17.048C130.023 17.048 129.399 17.272 128.919 17.72C128.471 18.136 128.247 18.76 128.247 19.592C128.247 20.456 128.503 21.24 129.015 21.944C129.559 22.616 130.343 23.384 131.367 24.248C132.487 25.24 133.303 26.088 133.815 26.792C134.359 27.464 134.631 28.28 134.631 29.24C134.631 30.264 134.327 31.272 133.719 32.264C133.111 33.224 132.279 34.008 131.223 34.616C130.167 35.224 129.031 35.528 127.815 35.528ZM150.124 35.672C148.236 35.672 146.748 35 145.66 33.656C144.604 32.312 144.076 30.552 144.076 28.376C144.076 27.384 144.156 26.504 144.316 25.736C144.668 23.88 145.34 22.2 146.332 20.696C147.324 19.192 148.524 18.008 149.932 17.144C151.34 16.28 152.828 15.848 154.396 15.848C156.38 15.848 157.916 16.52 159.004 17.864C160.092 19.176 160.636 20.888 160.636 23C160.636 23.896 160.54 24.808 160.348 25.736C159.964 27.688 159.244 29.432 158.188 30.968C157.132 32.472 155.884 33.64 154.444 34.472C153.036 35.272 151.596 35.672 150.124 35.672ZM151.804 34.472C153.148 34.472 154.364 33.88 155.452 32.696C156.54 31.512 157.276 29.896 157.66 27.848C157.82 26.824 157.9 25.896 157.9 25.064C157.9 22.856 157.468 20.968 156.604 19.4C155.772 17.8 154.572 17 153.004 17C151.628 17 150.396 17.608 149.308 18.824C148.22 20.008 147.468 21.624 147.052 23.672C146.86 24.632 146.764 25.608 146.764 26.6C146.764 28.744 147.212 30.6 148.108 32.168C149.004 33.704 150.236 34.472 151.804 34.472ZM188.065 31.352C188.097 31.32 188.145 31.304 188.209 31.304C188.305 31.304 188.385 31.368 188.449 31.496C188.513 31.592 188.513 31.672 188.449 31.736C187.329 33.016 186.321 33.96 185.425 34.568C184.529 35.144 183.665 35.432 182.833 35.432C182.289 35.432 181.889 35.272 181.633 34.952C181.377 34.6 181.249 34.056 181.249 33.32C181.249 32.488 181.329 31.656 181.489 30.824L182.497 25.016C181.345 28.344 179.985 30.952 178.417 32.84C176.849 34.696 175.201 35.624 173.473 35.624C171.361 35.624 170.305 34.44 170.305 32.072C170.305 31.208 170.417 30.28 170.641 29.288L172.369 20.744C172.465 20.2 172.513 19.768 172.513 19.448C172.513 18.456 172.209 17.96 171.601 17.96C170.961 17.96 169.905 18.696 168.433 20.168C168.369 20.232 168.305 20.264 168.241 20.264C168.145 20.264 168.065 20.216 168.001 20.12C167.937 19.992 167.953 19.88 168.049 19.784C169.169 18.504 170.145 17.56 170.977 16.952C171.841 16.344 172.673 16.04 173.473 16.04C174.593 16.04 175.153 16.776 175.153 18.248C175.153 18.728 175.041 19.56 174.817 20.744L173.281 28.376C173.057 29.592 172.945 30.472 172.945 31.016C172.945 32.84 173.633 33.752 175.009 33.752C176.065 33.752 177.153 33.08 178.273 31.736C179.425 30.392 180.497 28.44 181.489 25.88C182.513 23.32 183.329 20.296 183.937 16.808C184.033 16.328 184.545 16.088 185.473 16.088C186.241 16.088 186.625 16.184 186.625 16.376L186.433 17.48C186.241 18.248 186.065 19.096 185.905 20.024L183.937 30.728C183.841 31.208 183.793 31.64 183.793 32.024C183.793 33.048 184.113 33.56 184.753 33.56C185.105 33.56 185.569 33.368 186.145 32.984C186.753 32.6 187.393 32.056 188.065 31.352ZM215.897 31.304C215.961 31.24 216.009 31.208 216.041 31.208C216.137 31.208 216.217 31.272 216.281 31.4C216.377 31.496 216.377 31.592 216.281 31.688C215.193 32.968 214.217 33.912 213.353 34.52C212.521 35.128 211.705 35.432 210.905 35.432C210.329 35.432 209.897 35.272 209.609 34.952C209.353 34.6 209.225 34.04 209.225 33.272C209.225 32.632 209.321 31.784 209.513 30.728L210.905 23.096C211.097 22.072 211.193 21.208 211.193 20.504C211.193 18.648 210.505 17.72 209.129 17.72C208.073 17.72 206.969 18.392 205.817 19.736C204.697 21.08 203.641 23.048 202.649 25.64C201.657 28.2 200.857 31.208 200.249 34.664C200.185 34.888 200.009 35.064 199.721 35.192C199.465 35.32 199.113 35.384 198.665 35.384C198.217 35.384 197.913 35.352 197.753 35.288C197.625 35.256 197.561 35.192 197.561 35.096L197.753 33.992C197.945 33.224 198.121 32.376 198.281 31.448L200.249 20.744C200.345 20.264 200.393 19.832 200.393 19.448C200.393 18.424 200.073 17.912 199.433 17.912C199.049 17.912 198.553 18.104 197.945 18.488C197.369 18.872 196.761 19.416 196.121 20.12C196.089 20.152 196.041 20.168 195.977 20.168C195.881 20.168 195.785 20.12 195.689 20.024C195.625 19.896 195.641 19.8 195.737 19.736C196.825 18.488 197.817 17.56 198.713 16.952C199.641 16.344 200.521 16.04 201.353 16.04C201.897 16.04 202.297 16.216 202.553 16.568C202.809 16.888 202.937 17.416 202.937 18.152C202.937 18.984 202.857 19.816 202.697 20.648L201.689 26.456C202.841 23.128 204.201 20.536 205.769 18.68C207.337 16.792 208.985 15.848 210.713 15.848C211.769 15.848 212.553 16.136 213.065 16.712C213.577 17.288 213.833 18.2 213.833 19.448C213.833 20.216 213.737 21.128 213.545 22.184L211.961 30.728C211.865 31.208 211.817 31.64 211.817 32.024C211.817 33.016 212.137 33.512 212.777 33.512C213.449 33.512 214.489 32.776 215.897 31.304ZM238.546 30.728C238.45 31.208 238.402 31.624 238.402 31.976C238.402 33 238.722 33.512 239.362 33.512C240.002 33.512 241.058 32.776 242.53 31.304C242.594 31.24 242.642 31.208 242.674 31.208C242.77 31.208 242.85 31.272 242.914 31.4C243.01 31.496 243.01 31.592 242.914 31.688C241.762 32.968 240.77 33.912 239.938 34.52C239.106 35.128 238.29 35.432 237.49 35.432C236.37 35.432 235.81 34.728 235.81 33.32C235.81 32.808 235.922 31.944 236.146 30.728L237.058 25.976C235.586 28.984 234.018 31.352 232.354 33.08C230.722 34.776 229.058 35.624 227.362 35.624C226.21 35.624 225.266 35.256 224.53 34.52C223.794 33.752 223.426 32.552 223.426 30.92C223.426 30.568 223.49 29.912 223.618 28.952C224.034 26.648 224.898 24.488 226.21 22.472C227.554 20.456 229.138 18.856 230.962 17.672C232.818 16.456 234.658 15.848 236.482 15.848C237.378 15.848 238.146 16.056 238.786 16.472L240.898 5.288C240.962 4.776 240.994 4.44 240.994 4.28C240.994 3.448 240.642 3.032 239.938 3.032C239.426 3.032 238.642 3.272 237.586 3.752H237.49C237.394 3.752 237.314 3.672 237.25 3.512C237.218 3.352 237.266 3.256 237.394 3.224L243.634 0.199999H243.73C243.826 0.199999 243.922 0.247998 244.018 0.343997C244.114 0.439998 244.146 0.519999 244.114 0.584L238.546 30.728ZM228.898 33.272C230.338 33.272 231.746 32.488 233.122 30.92C234.53 29.352 235.682 27.528 236.578 25.448C237.474 23.368 237.922 21.752 237.922 20.6C237.922 19.608 237.634 18.856 237.058 18.344C236.482 17.8 235.698 17.528 234.706 17.528C232.626 17.592 230.818 18.44 229.282 20.072C227.778 21.704 226.77 24.024 226.258 27.032C226.13 27.768 226.066 28.488 226.066 29.192C226.066 30.536 226.306 31.56 226.786 32.264C227.298 32.936 228.002 33.272 228.898 33.272Z" fill="white"/>
</svg>
