<svg width="268" height="72" viewBox="0 0 268 72" fill="none" xmlns="http://www.w3.org/2000/svg">
<path d="M45.2345 23.192C44.5945 23.192 44.0398 23.064 43.5705 22.808C43.1012 22.5307 42.7492 22.1253 42.5145 21.592C42.2798 21.0587 42.1625 20.408 42.1625 19.64V2.392L43.5065 1.56V19.32C43.5065 20.1947 43.6665 20.8773 43.9865 21.368C44.3065 21.8373 44.8292 22.072 45.5545 22.072C45.8105 22.072 46.0985 22.0507 46.4185 22.008C46.7385 21.944 47.0692 21.8587 47.4105 21.752V22.84C47.0265 22.9467 46.6638 23.032 46.3225 23.096C45.9812 23.16 45.6185 23.192 45.2345 23.192ZM38.4825 8.28V7.224H47.4105V8.28H38.4825ZM58.9198 23.192C57.8318 23.192 56.8824 22.968 56.0718 22.52C55.2611 22.072 54.6424 21.3787 54.2158 20.44C53.8104 19.5013 53.6078 18.3173 53.6078 16.888V7.224H54.9198V16.472C54.9198 17.7307 55.0798 18.776 55.3998 19.608C55.7198 20.4187 56.1998 21.0267 56.8398 21.432C57.4798 21.816 58.2584 22.008 59.1758 22.008C60.1784 22.008 61.0424 21.7733 61.7678 21.304C62.4931 20.8347 63.0478 20.12 63.4318 19.16C63.8158 18.1787 64.0078 16.9307 64.0078 15.416V7.224H65.3198V23H64.0078V19.032H64.2958C63.9118 20.4613 63.2398 21.5173 62.2798 22.2C61.3198 22.8613 60.1998 23.192 58.9198 23.192ZM73.8748 23V7.224H75.1868V11.384L74.8668 11.448C75.0801 10.424 75.4854 9.592 76.0828 8.952C76.6801 8.29067 77.3521 7.81067 78.0988 7.512C78.8668 7.192 79.5921 7.032 80.2748 7.032C80.6801 7.032 81.0854 7.07467 81.4908 7.16C81.8961 7.224 82.2908 7.352 82.6748 7.544L81.9708 8.728C81.7148 8.62133 81.4161 8.536 81.0748 8.472C80.7548 8.38667 80.4134 8.344 80.0508 8.344C79.4748 8.344 78.8774 8.46133 78.2588 8.696C77.6401 8.93067 77.0854 9.304 76.5948 9.816C76.1041 10.3067 75.7308 10.9787 75.4748 11.832C75.3894 12.152 75.3148 12.5467 75.2508 13.016C75.2081 13.464 75.1868 14.1253 75.1868 15V23H73.8748ZM89.4185 23V7.224H90.7305V11.192L90.4425 11.288C90.6985 10.3493 91.0718 9.57067 91.5625 8.952C92.0745 8.312 92.6932 7.832 93.4185 7.512C94.1438 7.192 94.9438 7.032 95.8185 7.032C97.4825 7.032 98.7838 7.544 99.7225 8.568C100.683 9.57067 101.163 11.16 101.163 13.336V23H99.8185V13.752C99.8185 11.8533 99.4558 10.456 98.7305 9.56C98.0265 8.64267 96.9705 8.184 95.5625 8.184C94.6238 8.184 93.7918 8.42933 93.0665 8.92C92.3625 9.38933 91.7972 10.1467 91.3705 11.192C90.9438 12.216 90.7305 13.56 90.7305 15.224V23H89.4185ZM125.838 23.192C124.814 23.192 123.886 23.032 123.054 22.712C122.222 22.392 121.507 21.9547 120.91 21.4C120.334 20.8453 119.886 20.216 119.566 19.512L120.526 18.744C120.91 19.7253 121.571 20.5253 122.51 21.144C123.449 21.7413 124.569 22.04 125.87 22.04C127.086 22.04 128.078 21.7627 128.846 21.208C129.614 20.632 129.998 19.832 129.998 18.808C129.998 17.976 129.774 17.336 129.326 16.888C128.878 16.4187 128.291 16.0667 127.566 15.832C126.841 15.576 126.083 15.352 125.294 15.16C124.654 15.0107 124.035 14.84 123.438 14.648C122.862 14.4347 122.35 14.1787 121.902 13.88C121.454 13.5813 121.091 13.208 120.814 12.76C120.558 12.2907 120.43 11.7147 120.43 11.032C120.43 9.85867 120.889 8.89867 121.806 8.152C122.745 7.40533 123.961 7.032 125.454 7.032C126.585 7.032 127.619 7.288 128.558 7.8C129.497 8.312 130.222 9.09067 130.734 10.136L129.838 10.744C129.369 9.82667 128.75 9.16533 127.982 8.76C127.235 8.33333 126.382 8.12 125.422 8.12C124.334 8.12 123.438 8.38667 122.734 8.92C122.03 9.432 121.678 10.0933 121.678 10.904C121.678 11.544 121.838 12.056 122.158 12.44C122.499 12.824 122.969 13.1333 123.566 13.368C124.163 13.5813 124.857 13.784 125.646 13.976C126.35 14.1467 127.033 14.3387 127.694 14.552C128.377 14.744 128.985 15.0107 129.518 15.352C130.051 15.672 130.478 16.0987 130.798 16.632C131.139 17.144 131.31 17.8267 131.31 18.68C131.31 19.576 131.086 20.3653 130.638 21.048C130.19 21.7307 129.561 22.264 128.75 22.648C127.939 23.0107 126.969 23.192 125.838 23.192ZM145.331 23.192C143.901 23.192 142.632 22.8507 141.523 22.168C140.413 21.4853 139.539 20.536 138.899 19.32C138.259 18.0827 137.939 16.6747 137.939 15.096C137.939 13.5173 138.248 12.12 138.867 10.904C139.507 9.688 140.381 8.73867 141.491 8.056C142.6 7.37333 143.88 7.032 145.331 7.032C146.781 7.032 148.061 7.37333 149.171 8.056C150.28 8.73867 151.144 9.688 151.763 10.904C152.381 12.12 152.691 13.5173 152.691 15.096C152.691 16.6747 152.371 18.072 151.731 19.288C151.112 20.504 150.248 21.464 149.139 22.168C148.051 22.8507 146.781 23.192 145.331 23.192ZM145.331 22.008C146.547 22.008 147.603 21.72 148.499 21.144C149.395 20.5467 150.099 19.736 150.611 18.712C151.123 17.6667 151.379 16.4613 151.379 15.096C151.379 13.7307 151.123 12.536 150.611 11.512C150.099 10.4667 149.384 9.656 148.467 9.08C147.571 8.504 146.525 8.216 145.331 8.216C144.115 8.216 143.048 8.504 142.131 9.08C141.235 9.656 140.531 10.4667 140.019 11.512C139.528 12.536 139.283 13.7307 139.283 15.096C139.283 16.4613 139.528 17.6667 140.019 18.712C140.531 19.736 141.235 20.5467 142.131 21.144C143.048 21.72 144.115 22.008 145.331 22.008ZM165.339 23.192C164.251 23.192 163.301 22.968 162.491 22.52C161.68 22.072 161.061 21.3787 160.635 20.44C160.229 19.5013 160.027 18.3173 160.027 16.888V7.224H161.339V16.472C161.339 17.7307 161.499 18.776 161.819 19.608C162.139 20.4187 162.619 21.0267 163.259 21.432C163.899 21.816 164.677 22.008 165.595 22.008C166.597 22.008 167.461 21.7733 168.187 21.304C168.912 20.8347 169.467 20.12 169.851 19.16C170.235 18.1787 170.427 16.9307 170.427 15.416V7.224H171.739V23H170.427V19.032H170.715C170.331 20.4613 169.659 21.5173 168.699 22.2C167.739 22.8613 166.619 23.192 165.339 23.192ZM180.294 23V7.224H181.606V11.192L181.318 11.288C181.574 10.3493 181.947 9.57067 182.438 8.952C182.95 8.312 183.568 7.832 184.294 7.512C185.019 7.192 185.819 7.032 186.694 7.032C188.358 7.032 189.659 7.544 190.598 8.568C191.558 9.57067 192.038 11.16 192.038 13.336V23H190.694V13.752C190.694 11.8533 190.331 10.456 189.606 9.56C188.902 8.64267 187.846 8.184 186.438 8.184C185.499 8.184 184.667 8.42933 183.942 8.92C183.238 9.38933 182.672 10.1467 182.246 11.192C181.819 12.216 181.606 13.56 181.606 15.224V23H180.294ZM206.552 23.192C205.165 23.192 203.917 22.84 202.808 22.136C201.72 21.432 200.867 20.4613 200.248 19.224C199.629 17.9867 199.32 16.6107 199.32 15.096C199.32 13.5173 199.64 12.12 200.28 10.904C200.92 9.688 201.784 8.73867 202.872 8.056C203.96 7.37333 205.187 7.032 206.552 7.032C207.619 7.032 208.579 7.256 209.432 7.704C210.307 8.13067 211.043 8.728 211.64 9.496C212.259 10.264 212.696 11.1493 212.952 12.152L212.6 12.408V0.695999H213.912V23H212.6V17.816L213.016 17.976C212.739 19 212.291 19.9067 211.672 20.696C211.075 21.464 210.339 22.072 209.464 22.52C208.589 22.968 207.619 23.192 206.552 23.192ZM206.744 21.944C207.896 21.944 208.92 21.656 209.816 21.08C210.712 20.4827 211.416 19.6613 211.928 18.616C212.44 17.5707 212.696 16.3973 212.696 15.096C212.696 13.7733 212.44 12.6 211.928 11.576C211.416 10.552 210.712 9.74133 209.816 9.144C208.92 8.54667 207.896 8.248 206.744 8.248C205.571 8.248 204.525 8.54667 203.608 9.144C202.691 9.74133 201.965 10.5627 201.432 11.608C200.92 12.632 200.664 13.7947 200.664 15.096C200.664 16.3973 200.92 17.5707 201.432 18.616C201.965 19.64 202.691 20.4507 203.608 21.048C204.525 21.6453 205.571 21.944 206.744 21.944ZM240.612 23.192C239.183 23.192 237.913 22.8507 236.804 22.168C235.695 21.4853 234.82 20.536 234.18 19.32C233.54 18.0827 233.22 16.6747 233.22 15.096C233.22 13.5173 233.529 12.12 234.148 10.904C234.788 9.688 235.663 8.73867 236.772 8.056C237.881 7.37333 239.161 7.032 240.612 7.032C242.063 7.032 243.343 7.37333 244.452 8.056C245.561 8.73867 246.425 9.688 247.044 10.904C247.663 12.12 247.972 13.5173 247.972 15.096C247.972 16.6747 247.652 18.072 247.012 19.288C246.393 20.504 245.529 21.464 244.42 22.168C243.332 22.8507 242.063 23.192 240.612 23.192ZM240.612 22.008C241.828 22.008 242.884 21.72 243.78 21.144C244.676 20.5467 245.38 19.736 245.892 18.712C246.404 17.6667 246.66 16.4613 246.66 15.096C246.66 13.7307 246.404 12.536 245.892 11.512C245.38 10.4667 244.665 9.656 243.748 9.08C242.852 8.504 241.807 8.216 240.612 8.216C239.396 8.216 238.329 8.504 237.412 9.08C236.516 9.656 235.812 10.4667 235.3 11.512C234.809 12.536 234.564 13.7307 234.564 15.096C234.564 16.4613 234.809 17.6667 235.3 18.712C235.812 19.736 236.516 20.5467 237.412 21.144C238.329 21.72 239.396 22.008 240.612 22.008ZM255.781 23V7.224H257.093V11.192L256.805 11.288C257.061 10.3493 257.434 9.57067 257.925 8.952C258.437 8.312 259.056 7.832 259.781 7.512C260.506 7.192 261.306 7.032 262.181 7.032C263.845 7.032 265.146 7.544 266.085 8.568C267.045 9.57067 267.525 11.16 267.525 13.336V23H266.181V13.752C266.181 11.8533 265.818 10.456 265.093 9.56C264.389 8.64267 263.333 8.184 261.925 8.184C260.986 8.184 260.154 8.42933 259.429 8.92C258.725 9.38933 258.16 10.1467 257.733 11.192C257.306 12.216 257.093 13.56 257.093 15.224V23H255.781ZM0.799738 71.528V49.224H2.11174V54.408L1.72774 54.12C2.00507 53.0533 2.45307 52.1467 3.07174 51.4C3.71174 50.632 4.4584 50.0453 5.31174 49.64C6.1864 49.2347 7.1464 49.032 8.19174 49.032C9.5784 49.032 10.8157 49.384 11.9037 50.088C12.9917 50.792 13.8451 51.7627 14.4637 53C15.0824 54.216 15.3917 55.592 15.3917 57.128C15.3917 58.7067 15.0717 60.104 14.4317 61.32C13.7917 62.536 12.9277 63.4853 11.8397 64.168C10.7517 64.8507 9.53574 65.192 8.19174 65.192C7.12507 65.192 6.1544 64.9787 5.27974 64.552C4.40507 64.1253 3.66907 63.5387 3.07174 62.792C2.4744 62.024 2.03707 61.1493 1.75974 60.168L2.11174 59.816V71.528H0.799738ZM7.99974 63.976C9.15174 63.976 10.1864 63.6773 11.1037 63.08C12.0211 62.4827 12.7357 61.672 13.2477 60.648C13.7811 59.6027 14.0477 58.4293 14.0477 57.128C14.0477 55.8053 13.7811 54.632 13.2477 53.608C12.7357 52.5627 12.0211 51.752 11.1037 51.176C10.1864 50.5787 9.15174 50.28 7.99974 50.28C6.84774 50.28 5.81307 50.5787 4.89574 51.176C3.99974 51.752 3.29574 52.5627 2.78374 53.608C2.27174 54.632 2.01574 55.8053 2.01574 57.128C2.01574 58.4293 2.27174 59.6027 2.78374 60.648C3.29574 61.672 3.99974 62.4827 4.89574 63.08C5.81307 63.6773 6.84774 63.976 7.99974 63.976ZM23.156 65V49.224H24.468V53.384L24.148 53.448C24.3613 52.424 24.7667 51.592 25.364 50.952C25.9613 50.2907 26.6333 49.8107 27.38 49.512C28.148 49.192 28.8733 49.032 29.556 49.032C29.9613 49.032 30.3667 49.0747 30.772 49.16C31.1773 49.224 31.572 49.352 31.956 49.544L31.252 50.728C30.996 50.6213 30.6973 50.536 30.356 50.472C30.036 50.3867 29.6947 50.344 29.332 50.344C28.756 50.344 28.1587 50.4613 27.54 50.696C26.9213 50.9307 26.3667 51.304 25.876 51.816C25.3853 52.3067 25.012 52.9787 24.756 53.832C24.6707 54.152 24.596 54.5467 24.532 55.016C24.4893 55.464 24.468 56.1253 24.468 57V65H23.156ZM43.5655 65.192C42.4562 65.192 41.4642 65 40.5895 64.616C39.7362 64.2107 39.0108 63.656 38.4135 62.952C37.8162 62.2267 37.3575 61.384 37.0375 60.424C36.7175 59.4427 36.5575 58.376 36.5575 57.224C36.5575 56.072 36.7068 55.0053 37.0055 54.024C37.3255 53.0213 37.7735 52.1467 38.3495 51.4C38.9255 50.6533 39.6295 50.0773 40.4615 49.672C41.3148 49.2453 42.2642 49.032 43.3095 49.032C44.5255 49.032 45.5495 49.2453 46.3815 49.672C47.2348 50.0987 47.9175 50.6533 48.4295 51.336C48.9628 52.0187 49.3468 52.776 49.5815 53.608C49.8162 54.44 49.9335 55.2507 49.9335 56.04C49.9335 56.2747 49.9228 56.52 49.9015 56.776C49.9015 57.032 49.8908 57.2347 49.8695 57.384H37.9015C37.9228 59.4747 38.4455 61.096 39.4695 62.248C40.4935 63.4 41.8695 63.976 43.5975 63.976C44.6642 63.976 45.5708 63.816 46.3175 63.496C47.0642 63.176 47.8108 62.6213 48.5575 61.832L49.5175 62.664C48.9202 63.2827 48.3122 63.784 47.6935 64.168C47.0962 64.5307 46.4668 64.7973 45.8055 64.968C45.1442 65.1173 44.3975 65.192 43.5655 65.192ZM48.6215 56.68C48.6428 56.488 48.6535 56.3067 48.6535 56.136C48.6748 55.944 48.6855 55.7733 48.6855 55.624C48.6855 55.0267 48.5788 54.408 48.3655 53.768C48.1735 53.128 47.8642 52.5413 47.4375 52.008C47.0322 51.4533 46.4882 51.016 45.8055 50.696C45.1442 50.3547 44.3228 50.184 43.3415 50.184C42.2748 50.184 41.3468 50.4507 40.5575 50.984C39.7682 51.5173 39.1388 52.2533 38.6695 53.192C38.2215 54.1093 37.9548 55.1653 37.8695 56.36H49.0695L48.6215 56.68ZM62.138 65.192C61.114 65.192 60.186 65.032 59.354 64.712C58.522 64.392 57.8073 63.9547 57.21 63.4C56.634 62.8453 56.186 62.216 55.866 61.512L56.826 60.744C57.21 61.7253 57.8713 62.5253 58.81 63.144C59.7487 63.7413 60.8687 64.04 62.17 64.04C63.386 64.04 64.378 63.7627 65.146 63.208C65.914 62.632 66.298 61.832 66.298 60.808C66.298 59.976 66.074 59.336 65.626 58.888C65.178 58.4187 64.5913 58.0667 63.866 57.832C63.1407 57.576 62.3833 57.352 61.594 57.16C60.954 57.0107 60.3353 56.84 59.738 56.648C59.162 56.4347 58.65 56.1787 58.202 55.88C57.754 55.5813 57.3913 55.208 57.114 54.76C56.858 54.2907 56.73 53.7147 56.73 53.032C56.73 51.8587 57.1887 50.8987 58.106 50.152C59.0447 49.4053 60.2607 49.032 61.754 49.032C62.8847 49.032 63.9193 49.288 64.858 49.8C65.7967 50.312 66.522 51.0907 67.034 52.136L66.138 52.744C65.6687 51.8267 65.05 51.1653 64.282 50.76C63.5353 50.3333 62.682 50.12 61.722 50.12C60.634 50.12 59.738 50.3867 59.034 50.92C58.33 51.432 57.978 52.0933 57.978 52.904C57.978 53.544 58.138 54.056 58.458 54.44C58.7993 54.824 59.2687 55.1333 59.866 55.368C60.4633 55.5813 61.1567 55.784 61.946 55.976C62.65 56.1467 63.3327 56.3387 63.994 56.552C64.6767 56.744 65.2847 57.0107 65.818 57.352C66.3513 57.672 66.778 58.0987 67.098 58.632C67.4393 59.144 67.61 59.8267 67.61 60.68C67.61 61.576 67.386 62.3653 66.938 63.048C66.49 63.7307 65.8607 64.264 65.05 64.648C64.2393 65.0107 63.2687 65.192 62.138 65.192ZM80.1505 65.192C79.1265 65.192 78.1985 65.032 77.3665 64.712C76.5345 64.392 75.8198 63.9547 75.2225 63.4C74.6465 62.8453 74.1985 62.216 73.8785 61.512L74.8385 60.744C75.2225 61.7253 75.8838 62.5253 76.8225 63.144C77.7612 63.7413 78.8812 64.04 80.1825 64.04C81.3985 64.04 82.3905 63.7627 83.1585 63.208C83.9265 62.632 84.3105 61.832 84.3105 60.808C84.3105 59.976 84.0865 59.336 83.6385 58.888C83.1905 58.4187 82.6038 58.0667 81.8785 57.832C81.1532 57.576 80.3958 57.352 79.6065 57.16C78.9665 57.0107 78.3478 56.84 77.7505 56.648C77.1745 56.4347 76.6625 56.1787 76.2145 55.88C75.7665 55.5813 75.4038 55.208 75.1265 54.76C74.8705 54.2907 74.7425 53.7147 74.7425 53.032C74.7425 51.8587 75.2012 50.8987 76.1185 50.152C77.0572 49.4053 78.2732 49.032 79.7665 49.032C80.8972 49.032 81.9318 49.288 82.8705 49.8C83.8092 50.312 84.5345 51.0907 85.0465 52.136L84.1505 52.744C83.6812 51.8267 83.0625 51.1653 82.2945 50.76C81.5478 50.3333 80.6945 50.12 79.7345 50.12C78.6465 50.12 77.7505 50.3867 77.0465 50.92C76.3425 51.432 75.9905 52.0933 75.9905 52.904C75.9905 53.544 76.1505 54.056 76.4705 54.44C76.8118 54.824 77.2812 55.1333 77.8785 55.368C78.4758 55.5813 79.1692 55.784 79.9585 55.976C80.6625 56.1467 81.3452 56.3387 82.0065 56.552C82.6892 56.744 83.2972 57.0107 83.8305 57.352C84.3638 57.672 84.7905 58.0987 85.1105 58.632C85.4518 59.144 85.6225 59.8267 85.6225 60.68C85.6225 61.576 85.3985 62.3653 84.9505 63.048C84.5025 63.7307 83.8732 64.264 83.0625 64.648C82.2518 65.0107 81.2812 65.192 80.1505 65.192ZM103.339 51.88L107.691 42.696H108.651L104.875 51.88H103.339ZM114.419 65V63.88L125.555 50.184L125.619 50.344H114.963V49.224H126.867V50.44L115.763 64.2L115.699 63.88H126.739V65H114.419ZM132.678 51.88L136.454 42.696H137.99L133.638 51.88H132.678ZM157.894 65V50.28H154.182V49.224H157.894V46.76C157.894 45.736 158.054 44.9147 158.374 44.296C158.694 43.6773 159.142 43.2293 159.718 42.952C160.316 42.6533 161.009 42.504 161.798 42.504C162.268 42.504 162.705 42.5573 163.11 42.664C163.516 42.7493 163.9 42.888 164.262 43.08L163.814 44.072C163.537 43.944 163.238 43.848 162.918 43.784C162.62 43.6987 162.278 43.656 161.894 43.656C161.041 43.656 160.38 43.912 159.91 44.424C159.462 44.936 159.238 45.7147 159.238 46.76V49.224H163.238V50.28H159.238V65H157.894ZM175.437 65.192C174.008 65.192 172.738 64.8507 171.629 64.168C170.52 63.4853 169.645 62.536 169.005 61.32C168.365 60.0827 168.045 58.6747 168.045 57.096C168.045 55.5173 168.354 54.12 168.973 52.904C169.613 51.688 170.488 50.7387 171.597 50.056C172.706 49.3733 173.986 49.032 175.437 49.032C176.888 49.032 178.168 49.3733 179.277 50.056C180.386 50.7387 181.25 51.688 181.869 52.904C182.488 54.12 182.797 55.5173 182.797 57.096C182.797 58.6747 182.477 60.072 181.837 61.288C181.218 62.504 180.354 63.464 179.245 64.168C178.157 64.8507 176.888 65.192 175.437 65.192ZM175.437 64.008C176.653 64.008 177.709 63.72 178.605 63.144C179.501 62.5467 180.205 61.736 180.717 60.712C181.229 59.6667 181.485 58.4613 181.485 57.096C181.485 55.7307 181.229 54.536 180.717 53.512C180.205 52.4667 179.49 51.656 178.573 51.08C177.677 50.504 176.632 50.216 175.437 50.216C174.221 50.216 173.154 50.504 172.237 51.08C171.341 51.656 170.637 52.4667 170.125 53.512C169.634 54.536 169.389 55.7307 169.389 57.096C169.389 58.4613 169.634 59.6667 170.125 60.712C170.637 61.736 171.341 62.5467 172.237 63.144C173.154 63.72 174.221 64.008 175.437 64.008ZM190.606 65V49.224H191.918V53.384L191.598 53.448C191.811 52.424 192.217 51.592 192.814 50.952C193.411 50.2907 194.083 49.8107 194.83 49.512C195.598 49.192 196.323 49.032 197.006 49.032C197.411 49.032 197.817 49.0747 198.222 49.16C198.627 49.224 199.022 49.352 199.406 49.544L198.702 50.728C198.446 50.6213 198.147 50.536 197.806 50.472C197.486 50.3867 197.145 50.344 196.782 50.344C196.206 50.344 195.609 50.4613 194.99 50.696C194.371 50.9307 193.817 51.304 193.326 51.816C192.835 52.3067 192.462 52.9787 192.206 53.832C192.121 54.152 192.046 54.5467 191.982 55.016C191.939 55.464 191.918 56.1253 191.918 57V65H190.606ZM216.35 65V63.88L227.486 50.184L227.55 50.344H216.894V49.224H228.798V50.44L217.694 64.2L217.63 63.88H228.67V65H216.35ZM241.634 65.192C240.525 65.192 239.533 65 238.658 64.616C237.805 64.2107 237.08 63.656 236.482 62.952C235.885 62.2267 235.426 61.384 235.106 60.424C234.786 59.4427 234.626 58.376 234.626 57.224C234.626 56.072 234.776 55.0053 235.074 54.024C235.394 53.0213 235.842 52.1467 236.418 51.4C236.994 50.6533 237.698 50.0773 238.53 49.672C239.384 49.2453 240.333 49.032 241.378 49.032C242.594 49.032 243.618 49.2453 244.45 49.672C245.304 50.0987 245.986 50.6533 246.498 51.336C247.032 52.0187 247.416 52.776 247.65 53.608C247.885 54.44 248.002 55.2507 248.002 56.04C248.002 56.2747 247.992 56.52 247.97 56.776C247.97 57.032 247.96 57.2347 247.938 57.384H235.97C235.992 59.4747 236.514 61.096 237.538 62.248C238.562 63.4 239.938 63.976 241.666 63.976C242.733 63.976 243.64 63.816 244.386 63.496C245.133 63.176 245.88 62.6213 246.626 61.832L247.586 62.664C246.989 63.2827 246.381 63.784 245.762 64.168C245.165 64.5307 244.536 64.7973 243.874 64.968C243.213 65.1173 242.466 65.192 241.634 65.192ZM246.69 56.68C246.712 56.488 246.722 56.3067 246.722 56.136C246.744 55.944 246.754 55.7733 246.754 55.624C246.754 55.0267 246.648 54.408 246.434 53.768C246.242 53.128 245.933 52.5413 245.506 52.008C245.101 51.4533 244.557 51.016 243.874 50.696C243.213 50.3547 242.392 50.184 241.41 50.184C240.344 50.184 239.416 50.4507 238.626 50.984C237.837 51.5173 237.208 52.2533 236.738 53.192C236.29 54.1093 236.024 55.1653 235.938 56.36H247.138L246.69 56.68ZM255.781 65V49.224H257.093V53.192L256.805 53.288C257.061 52.3493 257.434 51.5707 257.925 50.952C258.437 50.312 259.056 49.832 259.781 49.512C260.506 49.192 261.306 49.032 262.181 49.032C263.845 49.032 265.146 49.544 266.085 50.568C267.045 51.5707 267.525 53.16 267.525 55.336V65H266.181V55.752C266.181 53.8533 265.818 52.456 265.093 51.56C264.389 50.6427 263.333 50.184 261.925 50.184C260.986 50.184 260.154 50.4293 259.429 50.92C258.725 51.3893 258.16 52.1467 257.733 53.192C257.306 54.216 257.093 55.56 257.093 57.224V65H255.781Z" fill="#E5CDCD"/>
</svg>
