<svg width="219" height="72" viewBox="0 0 219 72" fill="none" xmlns="http://www.w3.org/2000/svg">
<path d="M30.8175 11.744C30.9668 11.744 31.0415 11.8187 31.0415 11.968C31.0415 12.1387 30.9242 12.3627 30.6895 12.64C30.4548 12.9173 30.2308 13.056 30.0175 13.056C29.9108 13.056 29.4842 13.0133 28.7375 12.928C28.0122 12.8213 27.2975 12.7573 26.5935 12.736L25.1855 20.672C25.1215 21.0133 25.0895 21.3227 25.0895 21.6C25.0895 22.1333 25.2175 22.528 25.4735 22.784C25.7295 23.04 26.1242 23.168 26.6575 23.168C27.2122 23.168 27.7348 23.0507 28.2255 22.816C28.7162 22.56 29.2175 22.208 29.7295 21.76H29.7615C29.8255 21.76 29.8895 21.792 29.9535 21.856C30.0388 21.92 30.0495 21.9733 29.9855 22.016C29.0255 22.848 28.1828 23.456 27.4575 23.84C26.7535 24.2027 26.0708 24.384 25.4095 24.384C24.7908 24.384 24.2788 24.224 23.8735 23.904C23.4682 23.584 23.2655 23.072 23.2655 22.368C23.2655 22.24 23.2868 22.0053 23.3295 21.664L24.7055 14.208C24.7908 13.8027 24.8335 13.4613 24.8335 13.184C24.8335 12.8853 24.7482 12.6933 24.5775 12.608C24.4068 12.5013 24.0868 12.448 23.6175 12.448C23.5535 12.448 23.5215 12.3947 23.5215 12.288C23.5215 12.2453 23.5322 12.2027 23.5535 12.16C23.5962 12.096 23.6282 12.064 23.6495 12.064C24.3748 12.064 25.0042 11.8293 25.5375 11.36C26.0708 10.8907 26.4335 10.304 26.6255 9.6C26.6682 9.536 26.7642 9.504 26.9135 9.504C27.1268 9.504 27.2122 9.536 27.1695 9.6L26.7535 11.968C27.7988 11.9253 28.7908 11.872 29.7295 11.808L30.8175 11.744ZM48.127 21.568C48.1483 21.5467 48.1803 21.536 48.223 21.536C48.287 21.536 48.3403 21.5787 48.383 21.664C48.4257 21.728 48.4257 21.7813 48.383 21.824C47.6363 22.6773 46.9643 23.3067 46.367 23.712C45.7697 24.096 45.1937 24.288 44.639 24.288C44.2763 24.288 44.0097 24.1813 43.839 23.968C43.6683 23.7333 43.583 23.3707 43.583 22.88C43.583 22.3253 43.6363 21.7707 43.743 21.216L44.415 17.344C43.647 19.5627 42.7403 21.3013 41.695 22.56C40.6497 23.7973 39.551 24.416 38.399 24.416C36.991 24.416 36.287 23.6267 36.287 22.048C36.287 21.472 36.3617 20.8533 36.511 20.192L37.663 14.496C37.727 14.1333 37.759 13.8453 37.759 13.632C37.759 12.9707 37.5563 12.64 37.151 12.64C36.7243 12.64 36.0203 13.1307 35.039 14.112C34.9963 14.1547 34.9537 14.176 34.911 14.176C34.847 14.176 34.7937 14.144 34.751 14.08C34.7083 13.9947 34.719 13.92 34.783 13.856C35.5297 13.0027 36.1803 12.3733 36.735 11.968C37.311 11.5627 37.8657 11.36 38.399 11.36C39.1457 11.36 39.519 11.8507 39.519 12.832C39.519 13.152 39.4443 13.7067 39.295 14.496L38.271 19.584C38.1217 20.3947 38.047 20.9813 38.047 21.344C38.047 22.56 38.5057 23.168 39.423 23.168C40.127 23.168 40.8523 22.72 41.599 21.824C42.367 20.928 43.0817 19.6267 43.743 17.92C44.4257 16.2133 44.9697 14.1973 45.375 11.872C45.439 11.552 45.7803 11.392 46.399 11.392C46.911 11.392 47.167 11.456 47.167 11.584L47.039 12.32C46.911 12.832 46.7937 13.3973 46.687 14.016L45.375 21.152C45.311 21.472 45.279 21.76 45.279 22.016C45.279 22.6987 45.4923 23.04 45.919 23.04C46.1537 23.04 46.463 22.912 46.847 22.656C47.2523 22.4 47.679 22.0373 48.127 21.568ZM61.498 11.36C61.9033 11.36 62.298 11.5093 62.682 11.808C63.066 12.1067 63.258 12.4587 63.258 12.864C63.258 13.184 63.1513 13.4507 62.938 13.664C62.746 13.8773 62.5007 13.984 62.202 13.984C61.9673 13.984 61.7753 13.9307 61.626 13.824C61.498 13.7173 61.3593 13.5573 61.21 13.344C61.1247 13.2373 61.0287 13.1413 60.922 13.056C60.8153 12.9493 60.698 12.896 60.57 12.896C60.1007 12.896 59.5353 13.5147 58.874 14.752C58.234 15.9893 57.626 17.472 57.05 19.2C56.474 20.928 56.058 22.4533 55.802 23.776C55.7807 23.9253 55.674 24.0427 55.482 24.128C55.3113 24.2133 55.0767 24.256 54.778 24.256C54.5007 24.256 54.3087 24.2347 54.202 24.192C54.1167 24.1707 54.074 24.128 54.074 24.064L54.234 23.328L54.554 21.632L55.61 15.712C55.738 15.008 55.802 14.4533 55.802 14.048C55.802 13.088 55.546 12.608 55.034 12.608C54.5647 12.608 53.914 13.0027 53.082 13.792L53.018 13.824C52.954 13.824 52.9007 13.792 52.858 13.728C52.8153 13.6427 52.8047 13.5787 52.826 13.536C53.4873 12.8107 54.0953 12.2667 54.65 11.904C55.2047 11.5413 55.7487 11.36 56.282 11.36C56.7087 11.36 57.018 11.4987 57.21 11.776C57.4233 12.0533 57.53 12.5333 57.53 13.216C57.53 13.7493 57.4447 14.56 57.274 15.648L56.602 19.296C57.3273 17.056 58.1167 15.1787 58.97 13.664C59.8447 12.128 60.6873 11.36 61.498 11.36ZM80.437 21.536C80.4797 21.4933 80.5117 21.472 80.533 21.472C80.597 21.472 80.6503 21.5147 80.693 21.6C80.757 21.664 80.757 21.728 80.693 21.792C79.9677 22.6453 79.317 23.2747 78.741 23.68C78.1863 24.0853 77.6423 24.288 77.109 24.288C76.725 24.288 76.437 24.1813 76.245 23.968C76.0743 23.7333 75.989 23.36 75.989 22.848C75.989 22.4213 76.053 21.856 76.181 21.152L77.109 16.064C77.237 15.3813 77.301 14.8053 77.301 14.336C77.301 13.0987 76.8423 12.48 75.925 12.48C75.221 12.48 74.485 12.928 73.717 13.824C72.9703 14.72 72.2663 16.032 71.605 17.76C70.9437 19.4667 70.4103 21.472 70.005 23.776C69.9623 23.9253 69.845 24.0427 69.653 24.128C69.4823 24.2133 69.2477 24.256 68.949 24.256C68.6503 24.256 68.4477 24.2347 68.341 24.192C68.2557 24.1707 68.213 24.128 68.213 24.064L68.341 23.328C68.469 22.816 68.5863 22.2507 68.693 21.632L70.005 14.496C70.069 14.176 70.101 13.888 70.101 13.632C70.101 12.9493 69.8877 12.608 69.461 12.608C69.205 12.608 68.8743 12.736 68.469 12.992C68.085 13.248 67.6797 13.6107 67.253 14.08C67.2317 14.1013 67.1997 14.112 67.157 14.112C67.093 14.112 67.029 14.08 66.965 14.016C66.9223 13.9307 66.933 13.8667 66.997 13.824C67.7223 12.992 68.3837 12.3733 68.981 11.968C69.5997 11.5627 70.1863 11.36 70.741 11.36C71.1037 11.36 71.3703 11.4773 71.541 11.712C71.7117 11.9253 71.797 12.2773 71.797 12.768C71.797 13.3227 71.7437 13.8773 71.637 14.432L70.965 18.304C71.733 16.0853 72.6397 14.3573 73.685 13.12C74.7303 11.8613 75.829 11.232 76.981 11.232C77.685 11.232 78.2077 11.424 78.549 11.808C78.8903 12.192 79.061 12.8 79.061 13.632C79.061 14.144 78.997 14.752 78.869 15.456L77.813 21.152C77.749 21.472 77.717 21.76 77.717 22.016C77.717 22.6773 77.9303 23.008 78.357 23.008C78.805 23.008 79.4983 22.5173 80.437 21.536ZM98.332 24.352C97.5 24.352 96.7853 24.16 96.188 23.776C95.612 23.392 95.3667 22.9227 95.452 22.368C95.4733 22.0907 95.58 21.8773 95.772 21.728C95.964 21.5573 96.1773 21.472 96.412 21.472C96.604 21.472 96.7533 21.536 96.86 21.664C96.988 21.792 97.1373 22.0053 97.308 22.304C97.564 22.7307 97.82 23.0613 98.076 23.296C98.3533 23.5307 98.7587 23.648 99.292 23.648C100.465 23.648 101.148 22.9973 101.34 21.696C101.361 21.5893 101.372 21.4507 101.372 21.28C101.372 20.6613 101.201 20.128 100.86 19.68C100.519 19.232 99.9853 18.7093 99.26 18.112C98.556 17.536 98.0227 17.0347 97.66 16.608C97.3187 16.16 97.148 15.6267 97.148 15.008C97.148 14.9013 97.1693 14.72 97.212 14.464C97.404 13.504 97.9053 12.7467 98.716 12.192C99.548 11.616 100.465 11.328 101.468 11.328C102.193 11.328 102.801 11.4667 103.292 11.744C103.804 12.0213 104.06 12.3733 104.06 12.8C104.06 13.12 103.953 13.3653 103.74 13.536C103.548 13.7067 103.324 13.792 103.068 13.792C102.833 13.792 102.631 13.728 102.46 13.6C102.311 13.472 102.14 13.28 101.948 13.024C101.713 12.6827 101.479 12.4373 101.244 12.288C101.031 12.1173 100.721 12.032 100.316 12.032C99.804 12.032 99.388 12.1813 99.068 12.48C98.7693 12.7573 98.62 13.1733 98.62 13.728C98.62 14.304 98.7907 14.8267 99.132 15.296C99.4947 15.744 100.017 16.256 100.7 16.832C101.447 17.4933 101.991 18.0587 102.332 18.528C102.695 18.976 102.876 19.52 102.876 20.16C102.876 20.8427 102.673 21.5147 102.268 22.176C101.863 22.816 101.308 23.3387 100.604 23.744C99.9 24.1493 99.1427 24.352 98.332 24.352ZM112.884 24.448C111.626 24.448 110.634 24 109.908 23.104C109.204 22.208 108.852 21.0347 108.852 19.584C108.852 18.9227 108.906 18.336 109.012 17.824C109.247 16.5867 109.695 15.4667 110.356 14.464C111.018 13.4613 111.818 12.672 112.756 12.096C113.695 11.52 114.687 11.232 115.732 11.232C117.055 11.232 118.079 11.68 118.804 12.576C119.53 13.4507 119.892 14.592 119.892 16C119.892 16.5973 119.828 17.2053 119.7 17.824C119.444 19.1253 118.964 20.288 118.26 21.312C117.556 22.3147 116.724 23.0933 115.764 23.648C114.826 24.1813 113.866 24.448 112.884 24.448ZM114.004 23.648C114.9 23.648 115.711 23.2533 116.436 22.464C117.162 21.6747 117.652 20.5973 117.908 19.232C118.015 18.5493 118.068 17.9307 118.068 17.376C118.068 15.904 117.78 14.6453 117.204 13.6C116.65 12.5333 115.85 12 114.804 12C113.887 12 113.066 12.4053 112.34 13.216C111.615 14.0053 111.114 15.0827 110.836 16.448C110.708 17.088 110.644 17.7387 110.644 18.4C110.644 19.8293 110.943 21.0667 111.54 22.112C112.138 23.136 112.959 23.648 114.004 23.648ZM137.858 21.568C137.88 21.5467 137.912 21.536 137.954 21.536C138.018 21.536 138.072 21.5787 138.114 21.664C138.157 21.728 138.157 21.7813 138.114 21.824C137.368 22.6773 136.696 23.3067 136.098 23.712C135.501 24.096 134.925 24.288 134.37 24.288C134.008 24.288 133.741 24.1813 133.57 23.968C133.4 23.7333 133.314 23.3707 133.314 22.88C133.314 22.3253 133.368 21.7707 133.474 21.216L134.146 17.344C133.378 19.5627 132.472 21.3013 131.426 22.56C130.381 23.7973 129.282 24.416 128.13 24.416C126.722 24.416 126.018 23.6267 126.018 22.048C126.018 21.472 126.093 20.8533 126.242 20.192L127.394 14.496C127.458 14.1333 127.49 13.8453 127.49 13.632C127.49 12.9707 127.288 12.64 126.882 12.64C126.456 12.64 125.752 13.1307 124.77 14.112C124.728 14.1547 124.685 14.176 124.642 14.176C124.578 14.176 124.525 14.144 124.482 14.08C124.44 13.9947 124.45 13.92 124.514 13.856C125.261 13.0027 125.912 12.3733 126.466 11.968C127.042 11.5627 127.597 11.36 128.13 11.36C128.877 11.36 129.25 11.8507 129.25 12.832C129.25 13.152 129.176 13.7067 129.026 14.496L128.002 19.584C127.853 20.3947 127.778 20.9813 127.778 21.344C127.778 22.56 128.237 23.168 129.154 23.168C129.858 23.168 130.584 22.72 131.33 21.824C132.098 20.928 132.813 19.6267 133.474 17.92C134.157 16.2133 134.701 14.1973 135.106 11.872C135.17 11.552 135.512 11.392 136.13 11.392C136.642 11.392 136.898 11.456 136.898 11.584L136.77 12.32C136.642 12.832 136.525 13.3973 136.418 14.016L135.106 21.152C135.042 21.472 135.01 21.76 135.01 22.016C135.01 22.6987 135.224 23.04 135.65 23.04C135.885 23.04 136.194 22.912 136.578 22.656C136.984 22.4 137.41 22.0373 137.858 21.568ZM156.093 21.536C156.136 21.4933 156.168 21.472 156.189 21.472C156.253 21.472 156.307 21.5147 156.349 21.6C156.413 21.664 156.413 21.728 156.349 21.792C155.624 22.6453 154.973 23.2747 154.397 23.68C153.843 24.0853 153.299 24.288 152.765 24.288C152.381 24.288 152.093 24.1813 151.901 23.968C151.731 23.7333 151.645 23.36 151.645 22.848C151.645 22.4213 151.709 21.856 151.837 21.152L152.765 16.064C152.893 15.3813 152.957 14.8053 152.957 14.336C152.957 13.0987 152.499 12.48 151.581 12.48C150.877 12.48 150.141 12.928 149.373 13.824C148.627 14.72 147.923 16.032 147.261 17.76C146.6 19.4667 146.067 21.472 145.661 23.776C145.619 23.9253 145.501 24.0427 145.309 24.128C145.139 24.2133 144.904 24.256 144.605 24.256C144.307 24.256 144.104 24.2347 143.997 24.192C143.912 24.1707 143.869 24.128 143.869 24.064L143.997 23.328C144.125 22.816 144.243 22.2507 144.349 21.632L145.661 14.496C145.725 14.176 145.757 13.888 145.757 13.632C145.757 12.9493 145.544 12.608 145.117 12.608C144.861 12.608 144.531 12.736 144.125 12.992C143.741 13.248 143.336 13.6107 142.909 14.08C142.888 14.1013 142.856 14.112 142.813 14.112C142.749 14.112 142.685 14.08 142.621 14.016C142.579 13.9307 142.589 13.8667 142.653 13.824C143.379 12.992 144.04 12.3733 144.637 11.968C145.256 11.5627 145.843 11.36 146.397 11.36C146.76 11.36 147.027 11.4773 147.197 11.712C147.368 11.9253 147.453 12.2773 147.453 12.768C147.453 13.3227 147.4 13.8773 147.293 14.432L146.621 18.304C147.389 16.0853 148.296 14.3573 149.341 13.12C150.387 11.8613 151.485 11.232 152.637 11.232C153.341 11.232 153.864 11.424 154.205 11.808C154.547 12.192 154.717 12.8 154.717 13.632C154.717 14.144 154.653 14.752 154.525 15.456L153.469 21.152C153.405 21.472 153.373 21.76 153.373 22.016C153.373 22.6773 153.587 23.008 154.013 23.008C154.461 23.008 155.155 22.5173 156.093 21.536ZM170.872 21.152C170.808 21.472 170.776 21.7493 170.776 21.984C170.776 22.6667 170.99 23.008 171.416 23.008C171.843 23.008 172.547 22.5173 173.528 21.536C173.571 21.4933 173.603 21.472 173.624 21.472C173.688 21.472 173.742 21.5147 173.784 21.6C173.848 21.664 173.848 21.728 173.784 21.792C173.016 22.6453 172.355 23.2747 171.8 23.68C171.246 24.0853 170.702 24.288 170.168 24.288C169.422 24.288 169.048 23.8187 169.048 22.88C169.048 22.5387 169.123 21.9627 169.272 21.152L169.88 17.984C168.899 19.9893 167.854 21.568 166.744 22.72C165.656 23.8507 164.547 24.416 163.416 24.416C162.648 24.416 162.019 24.1707 161.528 23.68C161.038 23.168 160.792 22.368 160.792 21.28C160.792 21.0453 160.835 20.608 160.92 19.968C161.198 18.432 161.774 16.992 162.648 15.648C163.544 14.304 164.6 13.2373 165.816 12.448C167.054 11.6373 168.28 11.232 169.496 11.232C170.094 11.232 170.606 11.3707 171.032 11.648L172.44 4.192C172.483 3.85067 172.504 3.62667 172.504 3.52C172.504 2.96533 172.27 2.688 171.8 2.688C171.459 2.688 170.936 2.848 170.232 3.168H170.168C170.104 3.168 170.051 3.11467 170.008 3.008C169.987 2.90133 170.019 2.83733 170.104 2.816L174.264 0.799999H174.328C174.392 0.799999 174.456 0.831999 174.52 0.895998C174.584 0.959998 174.606 1.01333 174.584 1.056L170.872 21.152ZM164.44 22.848C165.4 22.848 166.339 22.3253 167.256 21.28C168.195 20.2347 168.963 19.0187 169.56 17.632C170.158 16.2453 170.456 15.168 170.456 14.4C170.456 13.7387 170.264 13.2373 169.88 12.896C169.496 12.5333 168.974 12.352 168.312 12.352C166.926 12.3947 165.72 12.96 164.696 14.048C163.694 15.136 163.022 16.6827 162.68 18.688C162.595 19.1787 162.552 19.6587 162.552 20.128C162.552 21.024 162.712 21.7067 163.032 22.176C163.374 22.624 163.843 22.848 164.44 22.848ZM193.103 24.448C191.844 24.448 190.852 24 190.127 23.104C189.423 22.208 189.071 21.0347 189.071 19.584C189.071 18.9227 189.124 18.336 189.231 17.824C189.466 16.5867 189.914 15.4667 190.575 14.464C191.236 13.4613 192.036 12.672 192.975 12.096C193.914 11.52 194.906 11.232 195.951 11.232C197.274 11.232 198.298 11.68 199.023 12.576C199.748 13.4507 200.111 14.592 200.111 16C200.111 16.5973 200.047 17.2053 199.919 17.824C199.663 19.1253 199.183 20.288 198.479 21.312C197.775 22.3147 196.943 23.0933 195.983 23.648C195.044 24.1813 194.084 24.448 193.103 24.448ZM194.223 23.648C195.119 23.648 195.93 23.2533 196.655 22.464C197.38 21.6747 197.871 20.5973 198.127 19.232C198.234 18.5493 198.287 17.9307 198.287 17.376C198.287 15.904 197.999 14.6453 197.423 13.6C196.868 12.5333 196.068 12 195.023 12C194.106 12 193.284 12.4053 192.559 13.216C191.834 14.0053 191.332 15.0827 191.055 16.448C190.927 17.088 190.863 17.7387 190.863 18.4C190.863 19.8293 191.162 21.0667 191.759 22.112C192.356 23.136 193.178 23.648 194.223 23.648ZM218.237 21.536C218.28 21.4933 218.312 21.472 218.333 21.472C218.397 21.472 218.45 21.5147 218.493 21.6C218.557 21.664 218.557 21.728 218.493 21.792C217.768 22.6453 217.117 23.2747 216.541 23.68C215.986 24.0853 215.442 24.288 214.909 24.288C214.525 24.288 214.237 24.1813 214.045 23.968C213.874 23.7333 213.789 23.36 213.789 22.848C213.789 22.4213 213.853 21.856 213.981 21.152L214.909 16.064C215.037 15.3813 215.101 14.8053 215.101 14.336C215.101 13.0987 214.642 12.48 213.725 12.48C213.021 12.48 212.285 12.928 211.517 13.824C210.77 14.72 210.066 16.032 209.405 17.76C208.744 19.4667 208.21 21.472 207.805 23.776C207.762 23.9253 207.645 24.0427 207.453 24.128C207.282 24.2133 207.048 24.256 206.749 24.256C206.45 24.256 206.248 24.2347 206.141 24.192C206.056 24.1707 206.013 24.128 206.013 24.064L206.141 23.328C206.269 22.816 206.386 22.2507 206.493 21.632L207.805 14.496C207.869 14.176 207.901 13.888 207.901 13.632C207.901 12.9493 207.688 12.608 207.261 12.608C207.005 12.608 206.674 12.736 206.269 12.992C205.885 13.248 205.48 13.6107 205.053 14.08C205.032 14.1013 205 14.112 204.957 14.112C204.893 14.112 204.829 14.08 204.765 14.016C204.722 13.9307 204.733 13.8667 204.797 13.824C205.522 12.992 206.184 12.3733 206.781 11.968C207.4 11.5627 207.986 11.36 208.541 11.36C208.904 11.36 209.17 11.4773 209.341 11.712C209.512 11.9253 209.597 12.2773 209.597 12.768C209.597 13.3227 209.544 13.8773 209.437 14.432L208.765 18.304C209.533 16.0853 210.44 14.3573 211.485 13.12C212.53 11.8613 213.629 11.232 214.781 11.232C215.485 11.232 216.008 11.424 216.349 11.808C216.69 12.192 216.861 12.8 216.861 13.632C216.861 14.144 216.797 14.752 216.669 15.456L215.613 21.152C215.549 21.472 215.517 21.76 215.517 22.016C215.517 22.6773 215.73 23.008 216.157 23.008C216.605 23.008 217.298 22.5173 218.237 21.536ZM11.9825 50.424C13.0065 50.424 13.7852 50.712 14.3185 51.288C14.8518 51.8427 15.1185 52.664 15.1185 53.752C15.1185 54.0933 15.0865 54.4773 15.0225 54.904C14.8305 56.3333 14.3505 57.6773 13.5825 58.936C12.8145 60.1733 11.8865 61.1653 10.7985 61.912C9.7105 62.6587 8.61184 63.032 7.5025 63.032C6.7345 63.032 6.1265 63 5.6785 62.936L4.6545 68.696C4.5905 69.0587 4.5585 69.3573 4.5585 69.592C4.5585 69.976 4.64384 70.2533 4.8145 70.424C5.0065 70.5947 5.30517 70.68 5.7105 70.68C5.8385 70.68 6.0945 70.6587 6.4785 70.616H6.5105C6.5745 70.616 6.61717 70.6693 6.6385 70.776C6.65984 70.8827 6.62784 70.9467 6.5425 70.968L1.0385 71.8C0.95317 71.8213 0.899836 71.768 0.878503 71.64C0.85717 71.512 0.88917 71.4373 0.974503 71.416C1.44384 71.3307 1.79584 71.2133 2.0305 71.064C2.26517 70.936 2.4465 70.712 2.5745 70.392C2.68117 70.0933 2.7985 69.6027 2.9265 68.92L5.6465 53.72L4.2065 54.808L4.1425 54.84C4.0785 54.84 4.0145 54.7973 3.9505 54.712C3.90784 54.6053 3.90784 54.5413 3.9505 54.52C4.63317 53.9013 5.24117 53.4107 5.7745 53.048L6.1905 50.648C6.1905 50.6053 6.33984 50.456 6.6385 50.2C6.93717 49.9227 7.20384 49.6347 7.4385 49.336C7.67317 49.0373 7.83317 48.696 7.9185 48.312C7.9185 48.248 7.97184 48.216 8.0785 48.216C8.12117 48.216 8.16384 48.2373 8.2065 48.28C8.2705 48.3013 8.29184 48.3333 8.2705 48.376L7.6625 51.768C9.21984 50.872 10.6598 50.424 11.9825 50.424ZM13.1985 55.96C13.2625 55.512 13.2945 55.0747 13.2945 54.648C13.2945 52.6 12.4092 51.576 10.6385 51.576C9.6785 51.576 8.64384 51.8853 7.5345 52.504L5.9025 61.592C6.6705 61.9547 7.5025 62.136 8.3985 62.136C9.7425 62.136 10.8198 61.5707 11.6305 60.44C12.4412 59.3093 12.9638 57.816 13.1985 55.96ZM28.3418 50.36C28.7471 50.36 29.1418 50.5093 29.5258 50.808C29.9098 51.1067 30.1018 51.4587 30.1018 51.864C30.1018 52.184 29.9951 52.4507 29.7818 52.664C29.5898 52.8773 29.3444 52.984 29.0458 52.984C28.8111 52.984 28.6191 52.9307 28.4698 52.824C28.3418 52.7173 28.2031 52.5573 28.0538 52.344C27.9684 52.2373 27.8724 52.1413 27.7658 52.056C27.6591 51.9493 27.5418 51.896 27.4138 51.896C26.9444 51.896 26.3791 52.5147 25.7178 53.752C25.0778 54.9893 24.4698 56.472 23.8938 58.2C23.3178 59.928 22.9018 61.4533 22.6458 62.776C22.6244 62.9253 22.5178 63.0427 22.3258 63.128C22.1551 63.2133 21.9204 63.256 21.6218 63.256C21.3444 63.256 21.1524 63.2347 21.0458 63.192C20.9604 63.1707 20.9178 63.128 20.9178 63.064L21.0778 62.328L21.3978 60.632L22.4538 54.712C22.5818 54.008 22.6458 53.4533 22.6458 53.048C22.6458 52.088 22.3898 51.608 21.8778 51.608C21.4084 51.608 20.7578 52.0027 19.9258 52.792L19.8618 52.824C19.7978 52.824 19.7444 52.792 19.7018 52.728C19.6591 52.6427 19.6484 52.5787 19.6698 52.536C20.3311 51.8107 20.9391 51.2667 21.4938 50.904C22.0484 50.5413 22.5924 50.36 23.1258 50.36C23.5524 50.36 23.8618 50.4987 24.0538 50.776C24.2671 51.0533 24.3738 51.5333 24.3738 52.216C24.3738 52.7493 24.2884 53.56 24.1178 54.648L23.4458 58.296C24.1711 56.056 24.9604 54.1787 25.8138 52.664C26.6884 51.128 27.5311 50.36 28.3418 50.36ZM43.1343 51.672C43.1343 52.3333 42.7823 52.9733 42.0783 53.592C41.3956 54.1893 40.4676 54.712 39.2943 55.16C38.1423 55.608 36.8943 55.9387 35.5503 56.152C35.4436 56.8347 35.3903 57.4213 35.3903 57.912C35.3903 59.2347 35.6889 60.3013 36.2863 61.112C36.8836 61.9013 37.7263 62.296 38.8143 62.296C40.0089 62.296 41.0756 61.944 42.0143 61.24H42.0783C42.1423 61.24 42.1956 61.272 42.2383 61.336C42.3023 61.4 42.3023 61.464 42.2383 61.528C40.7449 62.7653 39.1876 63.384 37.5663 63.384C36.2223 63.384 35.1983 62.9573 34.4943 62.104C33.8116 61.2293 33.4703 60.1093 33.4703 58.744C33.4703 58.2747 33.5236 57.72 33.6303 57.08C33.8223 55.992 34.2703 54.9253 34.9743 53.88C35.6783 52.8133 36.5529 51.9387 37.5983 51.256C38.6649 50.5733 39.7743 50.232 40.9263 50.232C41.6303 50.232 42.1743 50.36 42.5583 50.616C42.9423 50.872 43.1343 51.224 43.1343 51.672ZM39.5183 51.096C38.5369 51.096 37.7049 51.5333 37.0223 52.408C36.3609 53.2613 35.9023 54.36 35.6463 55.704C37.1396 55.448 38.3449 55.064 39.2623 54.552C40.2009 54.04 40.7663 53.4 40.9583 52.632C41.0009 52.4187 41.0223 52.2693 41.0223 52.184C41.0223 51.8213 40.8729 51.5547 40.5743 51.384C40.2756 51.192 39.9236 51.096 39.5183 51.096ZM50.007 63.352C49.175 63.352 48.4603 63.16 47.863 62.776C47.287 62.392 47.0417 61.9227 47.127 61.368C47.1483 61.0907 47.255 60.8773 47.447 60.728C47.639 60.5573 47.8523 60.472 48.087 60.472C48.279 60.472 48.4283 60.536 48.535 60.664C48.663 60.792 48.8123 61.0053 48.983 61.304C49.239 61.7307 49.495 62.0613 49.751 62.296C50.0283 62.5307 50.4337 62.648 50.967 62.648C52.1403 62.648 52.823 61.9973 53.015 60.696C53.0363 60.5893 53.047 60.4507 53.047 60.28C53.047 59.6613 52.8763 59.128 52.535 58.68C52.1937 58.232 51.6603 57.7093 50.935 57.112C50.231 56.536 49.6977 56.0347 49.335 55.608C48.9937 55.16 48.823 54.6267 48.823 54.008C48.823 53.9013 48.8443 53.72 48.887 53.464C49.079 52.504 49.5803 51.7467 50.391 51.192C51.223 50.616 52.1403 50.328 53.143 50.328C53.8683 50.328 54.4763 50.4667 54.967 50.744C55.479 51.0213 55.735 51.3733 55.735 51.8C55.735 52.12 55.6283 52.3653 55.415 52.536C55.223 52.7067 54.999 52.792 54.743 52.792C54.5083 52.792 54.3057 52.728 54.135 52.6C53.9857 52.472 53.815 52.28 53.623 52.024C53.3883 51.6827 53.1537 51.4373 52.919 51.288C52.7057 51.1173 52.3963 51.032 51.991 51.032C51.479 51.032 51.063 51.1813 50.743 51.48C50.4443 51.7573 50.295 52.1733 50.295 52.728C50.295 53.304 50.4657 53.8267 50.807 54.296C51.1697 54.744 51.6923 55.256 52.375 55.832C53.1217 56.4933 53.6657 57.0587 54.007 57.528C54.3697 57.976 54.551 58.52 54.551 59.16C54.551 59.8427 54.3483 60.5147 53.943 61.176C53.5377 61.816 52.983 62.3387 52.279 62.744C51.575 63.1493 50.8177 63.352 50.007 63.352ZM62.6758 63.352C61.8438 63.352 61.1291 63.16 60.5318 62.776C59.9558 62.392 59.7104 61.9227 59.7958 61.368C59.8171 61.0907 59.9238 60.8773 60.1158 60.728C60.3078 60.5573 60.5211 60.472 60.7558 60.472C60.9478 60.472 61.0971 60.536 61.2038 60.664C61.3318 60.792 61.4811 61.0053 61.6518 61.304C61.9078 61.7307 62.1638 62.0613 62.4198 62.296C62.6971 62.5307 63.1024 62.648 63.6358 62.648C64.8091 62.648 65.4918 61.9973 65.6838 60.696C65.7051 60.5893 65.7158 60.4507 65.7158 60.28C65.7158 59.6613 65.5451 59.128 65.2038 58.68C64.8624 58.232 64.3291 57.7093 63.6038 57.112C62.8998 56.536 62.3664 56.0347 62.0038 55.608C61.6624 55.16 61.4918 54.6267 61.4918 54.008C61.4918 53.9013 61.5131 53.72 61.5558 53.464C61.7478 52.504 62.2491 51.7467 63.0598 51.192C63.8918 50.616 64.8091 50.328 65.8118 50.328C66.5371 50.328 67.1451 50.4667 67.6358 50.744C68.1478 51.0213 68.4038 51.3733 68.4038 51.8C68.4038 52.12 68.2971 52.3653 68.0838 52.536C67.8918 52.7067 67.6678 52.792 67.4118 52.792C67.1771 52.792 66.9744 52.728 66.8038 52.6C66.6544 52.472 66.4838 52.28 66.2918 52.024C66.0571 51.6827 65.8224 51.4373 65.5878 51.288C65.3744 51.1173 65.0651 51.032 64.6598 51.032C64.1478 51.032 63.7318 51.1813 63.4118 51.48C63.1131 51.7573 62.9638 52.1733 62.9638 52.728C62.9638 53.304 63.1344 53.8267 63.4758 54.296C63.8384 54.744 64.3611 55.256 65.0438 55.832C65.7904 56.4933 66.3344 57.0587 66.6758 57.528C67.0384 57.976 67.2198 58.52 67.2198 59.16C67.2198 59.8427 67.0171 60.5147 66.6118 61.176C66.2064 61.816 65.6518 62.3387 64.9478 62.744C64.2438 63.1493 63.4864 63.352 62.6758 63.352ZM88.632 42.68C88.6533 42.6587 88.6853 42.648 88.728 42.648C88.792 42.648 88.8453 42.6907 88.888 42.776C88.9307 42.8613 88.92 42.9253 88.856 42.968C88.0667 43.5653 87.448 44.1733 87 44.792C86.5733 45.3893 86.3067 46.04 86.2 46.744C86.1573 47 86.136 47.1813 86.136 47.288C86.136 47.48 86.168 47.6613 86.232 47.832C86.424 47.6187 86.712 47.512 87.096 47.512C87.48 47.512 87.7787 47.64 87.992 47.896C88.2267 48.1307 88.344 48.4187 88.344 48.76C88.344 49.1653 88.2053 49.4853 87.928 49.72C87.672 49.9333 87.3093 50.04 86.84 50.04C86.3067 50.04 85.88 49.8693 85.56 49.528C85.24 49.1653 85.08 48.664 85.08 48.024C85.08 46.168 86.264 44.3867 88.632 42.68ZM102.274 50.296C102.338 50.296 102.391 50.3387 102.434 50.424C102.498 50.5093 102.508 50.5733 102.466 50.616L93.4735 60.856C93.7082 60.7707 94.0175 60.728 94.4015 60.728C94.9348 60.728 95.9588 60.8667 97.4735 61.144C98.7108 61.3573 99.4895 61.464 99.8095 61.464C100.151 61.464 100.418 61.3573 100.61 61.144C100.823 60.9307 101.036 60.5467 101.25 59.992C101.25 59.9707 101.282 59.96 101.346 59.96C101.41 59.96 101.474 59.9813 101.538 60.024C101.602 60.0453 101.623 60.0773 101.602 60.12C101.303 61.0373 101.047 61.7093 100.834 62.136C100.642 62.5413 100.428 62.8187 100.194 62.968C99.9802 63.096 99.6815 63.16 99.2975 63.16C98.7642 63.16 98.1348 63.096 97.4095 62.968C96.6842 62.84 96.2468 62.7653 96.0975 62.744C94.7748 62.4667 93.7188 62.3173 92.9295 62.296C92.5882 62.296 92.2895 62.36 92.0335 62.488C91.7775 62.616 91.4895 62.8613 91.1695 63.224H91.1375C91.0948 63.224 91.0415 63.1813 90.9775 63.096C90.9135 63.0107 90.8922 62.9573 90.9135 62.936L99.9375 52.664C99.7455 52.7707 99.4362 52.824 99.0095 52.824C98.6895 52.824 98.2842 52.7813 97.7935 52.696C97.3028 52.6107 96.8228 52.5147 96.3535 52.408C95.3722 52.1733 94.7002 52.056 94.3375 52.056C93.9962 52.056 93.7188 52.1733 93.5055 52.408C93.2922 52.6427 93.0682 53.048 92.8335 53.624C92.8122 53.688 92.7695 53.72 92.7055 53.72C92.6415 53.72 92.5775 53.6987 92.5135 53.656C92.4708 53.592 92.4602 53.5173 92.4815 53.432C92.8228 52.4293 93.1002 51.7253 93.3135 51.32C93.5268 50.9147 93.7615 50.6587 94.0175 50.552C94.2735 50.424 94.6468 50.3707 95.1375 50.392C95.5855 50.4133 96.4068 50.552 97.6015 50.808C98.8602 51.064 99.8095 51.2133 100.45 51.256C100.791 51.256 101.09 51.192 101.346 51.064C101.602 50.936 101.89 50.6907 102.21 50.328L102.274 50.296ZM109.626 42.712C110.159 42.712 110.586 42.8933 110.906 43.256C111.226 43.5973 111.386 44.088 111.386 44.728C111.386 46.584 110.202 48.3653 107.834 50.072C107.812 50.0933 107.78 50.104 107.738 50.104C107.674 50.104 107.62 50.0613 107.578 49.976C107.535 49.8907 107.546 49.8267 107.61 49.784C108.399 49.1867 109.007 48.5893 109.434 47.992C109.882 47.3733 110.159 46.712 110.266 46.008C110.308 45.752 110.33 45.5707 110.33 45.464C110.33 45.2507 110.298 45.0693 110.234 44.92C110.042 45.1333 109.754 45.24 109.37 45.24C108.986 45.24 108.676 45.1227 108.442 44.888C108.228 44.632 108.122 44.3333 108.122 43.992C108.122 43.5867 108.25 43.2773 108.506 43.064C108.783 42.8293 109.156 42.712 109.626 42.712ZM134.039 39.768C134.786 39.768 135.362 39.9387 135.767 40.28C136.194 40.6 136.386 40.984 136.343 41.432C136.279 41.752 136.141 41.9973 135.927 42.168C135.735 42.3173 135.501 42.392 135.223 42.392C134.925 42.392 134.701 42.3067 134.551 42.136C134.423 41.9653 134.285 41.688 134.135 41.304C134.007 40.9627 133.869 40.7067 133.719 40.536C133.57 40.344 133.346 40.248 133.047 40.248C132.215 40.248 131.501 40.9733 130.903 42.424C130.306 43.8747 129.794 46.0507 129.367 48.952L129.079 50.936L131.127 50.808L132.375 50.744C132.567 50.744 132.642 50.84 132.599 51.032C132.535 51.2453 132.386 51.48 132.151 51.736C131.938 51.9707 131.725 52.0773 131.511 52.056L130.839 51.96C130.135 51.832 129.506 51.7573 128.951 51.736L127.223 63.672C126.925 65.7413 126.573 67.352 126.167 68.504C125.783 69.6773 125.303 70.52 124.727 71.032C124.173 71.544 123.447 71.8 122.551 71.8C121.847 71.8 121.325 71.6613 120.983 71.384C120.621 71.128 120.471 70.808 120.535 70.424C120.557 70.1253 120.674 69.88 120.887 69.688C121.101 69.5173 121.367 69.432 121.687 69.432C122.007 69.432 122.242 69.5173 122.391 69.688C122.541 69.8587 122.669 70.104 122.775 70.424C122.861 70.7013 122.957 70.904 123.063 71.032C123.149 71.16 123.298 71.224 123.511 71.224C123.767 71.224 123.981 71.0533 124.151 70.712C124.343 70.392 124.535 69.7627 124.727 68.824C124.919 67.8853 125.154 66.4453 125.431 64.504L127.063 53.208C127.106 52.7813 127.127 52.504 127.127 52.376C127.127 51.9707 127.01 51.7147 126.775 51.608C126.541 51.5013 126.05 51.448 125.303 51.448C125.239 51.448 125.207 51.3947 125.207 51.288C125.207 51.2453 125.218 51.2027 125.239 51.16C125.282 51.096 125.314 51.064 125.335 51.064C126.082 51.064 126.615 50.9573 126.935 50.744C127.277 50.5307 127.49 50.1573 127.575 49.624C128.002 47 128.471 44.9947 128.983 43.608C129.517 42.2 130.167 41.208 130.935 40.632C131.725 40.056 132.759 39.768 134.039 39.768ZM139.959 63.448C138.701 63.448 137.709 63 136.983 62.104C136.279 61.208 135.927 60.0347 135.927 58.584C135.927 57.9227 135.981 57.336 136.087 56.824C136.322 55.5867 136.77 54.4667 137.431 53.464C138.093 52.4613 138.893 51.672 139.831 51.096C140.77 50.52 141.762 50.232 142.807 50.232C144.13 50.232 145.154 50.68 145.879 51.576C146.605 52.4507 146.967 53.592 146.967 55C146.967 55.5973 146.903 56.2053 146.775 56.824C146.519 58.1253 146.039 59.288 145.335 60.312C144.631 61.3147 143.799 62.0933 142.839 62.648C141.901 63.1813 140.941 63.448 139.959 63.448ZM141.079 62.648C141.975 62.648 142.786 62.2533 143.511 61.464C144.237 60.6747 144.727 59.5973 144.983 58.232C145.09 57.5493 145.143 56.9307 145.143 56.376C145.143 54.904 144.855 53.6453 144.279 52.6C143.725 51.5333 142.925 51 141.879 51C140.962 51 140.141 51.4053 139.415 52.216C138.69 53.0053 138.189 54.0827 137.911 55.448C137.783 56.088 137.719 56.7387 137.719 57.4C137.719 58.8293 138.018 60.0667 138.615 61.112C139.213 62.136 140.034 62.648 141.079 62.648ZM160.229 50.36C160.635 50.36 161.029 50.5093 161.413 50.808C161.797 51.1067 161.989 51.4587 161.989 51.864C161.989 52.184 161.883 52.4507 161.669 52.664C161.477 52.8773 161.232 52.984 160.933 52.984C160.699 52.984 160.507 52.9307 160.357 52.824C160.229 52.7173 160.091 52.5573 159.941 52.344C159.856 52.2373 159.76 52.1413 159.653 52.056C159.547 51.9493 159.429 51.896 159.301 51.896C158.832 51.896 158.267 52.5147 157.605 53.752C156.965 54.9893 156.357 56.472 155.781 58.2C155.205 59.928 154.789 61.4533 154.533 62.776C154.512 62.9253 154.405 63.0427 154.213 63.128C154.043 63.2133 153.808 63.256 153.509 63.256C153.232 63.256 153.04 63.2347 152.933 63.192C152.848 63.1707 152.805 63.128 152.805 63.064L152.965 62.328L153.285 60.632L154.341 54.712C154.469 54.008 154.533 53.4533 154.533 53.048C154.533 52.088 154.277 51.608 153.765 51.608C153.296 51.608 152.645 52.0027 151.813 52.792L151.749 52.824C151.685 52.824 151.632 52.792 151.589 52.728C151.547 52.6427 151.536 52.5787 151.557 52.536C152.219 51.8107 152.827 51.2667 153.381 50.904C153.936 50.5413 154.48 50.36 155.013 50.36C155.44 50.36 155.749 50.4987 155.941 50.776C156.155 51.0533 156.261 51.5333 156.261 52.216C156.261 52.7493 156.176 53.56 156.005 54.648L155.333 58.296C156.059 56.056 156.848 54.1787 157.701 52.664C158.576 51.128 159.419 50.36 160.229 50.36ZM186.892 50.296C186.956 50.296 187.01 50.3387 187.052 50.424C187.116 50.5093 187.127 50.5733 187.084 50.616L178.092 60.856C178.327 60.7707 178.636 60.728 179.02 60.728C179.554 60.728 180.578 60.8667 182.092 61.144C183.33 61.3573 184.108 61.464 184.428 61.464C184.77 61.464 185.036 61.3573 185.228 61.144C185.442 60.9307 185.655 60.5467 185.868 59.992C185.868 59.9707 185.9 59.96 185.964 59.96C186.028 59.96 186.092 59.9813 186.156 60.024C186.22 60.0453 186.242 60.0773 186.22 60.12C185.922 61.0373 185.666 61.7093 185.452 62.136C185.26 62.5413 185.047 62.8187 184.812 62.968C184.599 63.096 184.3 63.16 183.916 63.16C183.383 63.16 182.754 63.096 182.028 62.968C181.303 62.84 180.866 62.7653 180.716 62.744C179.394 62.4667 178.338 62.3173 177.548 62.296C177.207 62.296 176.908 62.36 176.652 62.488C176.396 62.616 176.108 62.8613 175.788 63.224H175.756C175.714 63.224 175.66 63.1813 175.596 63.096C175.532 63.0107 175.511 62.9573 175.532 62.936L184.556 52.664C184.364 52.7707 184.055 52.824 183.628 52.824C183.308 52.824 182.903 52.7813 182.412 52.696C181.922 52.6107 181.442 52.5147 180.972 52.408C179.991 52.1733 179.319 52.056 178.956 52.056C178.615 52.056 178.338 52.1733 178.124 52.408C177.911 52.6427 177.687 53.048 177.452 53.624C177.431 53.688 177.388 53.72 177.324 53.72C177.26 53.72 177.196 53.6987 177.132 53.656C177.09 53.592 177.079 53.5173 177.1 53.432C177.442 52.4293 177.719 51.7253 177.932 51.32C178.146 50.9147 178.38 50.6587 178.636 50.552C178.892 50.424 179.266 50.3707 179.756 50.392C180.204 50.4133 181.026 50.552 182.22 50.808C183.479 51.064 184.428 51.2133 185.068 51.256C185.41 51.256 185.708 51.192 185.964 51.064C186.22 50.936 186.508 50.6907 186.828 50.328L186.892 50.296ZM200.484 51.672C200.484 52.3333 200.132 52.9733 199.428 53.592C198.746 54.1893 197.818 54.712 196.644 55.16C195.492 55.608 194.244 55.9387 192.9 56.152C192.794 56.8347 192.74 57.4213 192.74 57.912C192.74 59.2347 193.039 60.3013 193.636 61.112C194.234 61.9013 195.076 62.296 196.164 62.296C197.359 62.296 198.426 61.944 199.364 61.24H199.428C199.492 61.24 199.546 61.272 199.588 61.336C199.652 61.4 199.652 61.464 199.588 61.528C198.095 62.7653 196.538 63.384 194.916 63.384C193.572 63.384 192.548 62.9573 191.844 62.104C191.162 61.2293 190.82 60.1093 190.82 58.744C190.82 58.2747 190.874 57.72 190.98 57.08C191.172 55.992 191.62 54.9253 192.324 53.88C193.028 52.8133 193.903 51.9387 194.948 51.256C196.015 50.5733 197.124 50.232 198.276 50.232C198.98 50.232 199.524 50.36 199.908 50.616C200.292 50.872 200.484 51.224 200.484 51.672ZM196.868 51.096C195.887 51.096 195.055 51.5333 194.372 52.408C193.711 53.2613 193.252 54.36 192.996 55.704C194.49 55.448 195.695 55.064 196.612 54.552C197.551 54.04 198.116 53.4 198.308 52.632C198.351 52.4187 198.372 52.2693 198.372 52.184C198.372 51.8213 198.223 51.5547 197.924 51.384C197.626 51.192 197.274 51.096 196.868 51.096ZM218.237 60.536C218.28 60.4933 218.312 60.472 218.333 60.472C218.397 60.472 218.45 60.5147 218.493 60.6C218.557 60.664 218.557 60.728 218.493 60.792C217.768 61.6453 217.117 62.2747 216.541 62.68C215.986 63.0853 215.442 63.288 214.909 63.288C214.525 63.288 214.237 63.1813 214.045 62.968C213.874 62.7333 213.789 62.36 213.789 61.848C213.789 61.4213 213.853 60.856 213.981 60.152L214.909 55.064C215.037 54.3813 215.101 53.8053 215.101 53.336C215.101 52.0987 214.642 51.48 213.725 51.48C213.021 51.48 212.285 51.928 211.517 52.824C210.77 53.72 210.066 55.032 209.405 56.76C208.744 58.4667 208.21 60.472 207.805 62.776C207.762 62.9253 207.645 63.0427 207.453 63.128C207.282 63.2133 207.048 63.256 206.749 63.256C206.45 63.256 206.248 63.2347 206.141 63.192C206.056 63.1707 206.013 63.128 206.013 63.064L206.141 62.328C206.269 61.816 206.386 61.2507 206.493 60.632L207.805 53.496C207.869 53.176 207.901 52.888 207.901 52.632C207.901 51.9493 207.688 51.608 207.261 51.608C207.005 51.608 206.674 51.736 206.269 51.992C205.885 52.248 205.48 52.6107 205.053 53.08C205.032 53.1013 205 53.112 204.957 53.112C204.893 53.112 204.829 53.08 204.765 53.016C204.722 52.9307 204.733 52.8667 204.797 52.824C205.522 51.992 206.184 51.3733 206.781 50.968C207.4 50.5627 207.986 50.36 208.541 50.36C208.904 50.36 209.17 50.4773 209.341 50.712C209.512 50.9253 209.597 51.2773 209.597 51.768C209.597 52.3227 209.544 52.8773 209.437 53.432L208.765 57.304C209.533 55.0853 210.44 53.3573 211.485 52.12C212.53 50.8613 213.629 50.232 214.781 50.232C215.485 50.232 216.008 50.424 216.349 50.808C216.69 51.192 216.861 51.8 216.861 52.632C216.861 53.144 216.797 53.752 216.669 54.456L215.613 60.152C215.549 60.472 215.517 60.76 215.517 61.016C215.517 61.6773 215.73 62.008 216.157 62.008C216.605 62.008 217.298 61.5173 218.237 60.536Z" fill="white"/>
</svg>
